<?xml version="1.0" encoding="UTF-8"?>
<svg version="1.1" xmlns="http://www.w3.org/2000/svg" width="500" height="500">
<path d="M0 0 C0.65838867 0.01256836 1.31677734 0.02513672 1.99511719 0.03808594 C30.76617962 0.66829696 58.79504339 8.00983307 84 22 C85.28252957 22.68737306 86.56640046 23.37224896 87.8515625 24.0546875 C90.91208743 25.68317221 93.95965914 27.3340598 97 29 C97 29.66 97 30.32 97 31 C97.556875 31.103125 98.11375 31.20625 98.6875 31.3125 C101.4769101 32.14178408 103.6139064 33.34299056 106 35 C106 35.66 106 36.32 106 37 C106.763125 37.28875 107.52625 37.5775 108.3125 37.875 C111 39 111 39 114 41 C114 41.66 114 42.32 114 43 C114.54140625 43.22429687 115.0828125 43.44859375 115.640625 43.6796875 C118.73785148 45.41290364 121.18028198 47.71076278 123.75 50.125 C124.27859619 50.61709961 124.80719238 51.10919922 125.35180664 51.61621094 C126.90754644 53.07091638 128.455197 54.53369413 130 56 C130.78761719 56.74507812 131.57523437 57.49015625 132.38671875 58.2578125 C136.4839107 62.23794182 139.75232237 66.30891009 143 71 C143.721875 71.70125 144.44375 72.4025 145.1875 73.125 C147.25655125 75.26539785 148.06582551 77.19747652 149 80 C149.66 80 150.32 80 151 80 C155 86.75 155 86.75 155 89 C155.66 89 156.32 89 157 89 C157.56267578 90.03447266 157.56267578 90.03447266 158.13671875 91.08984375 C158.64847656 92.02957031 159.16023438 92.96929687 159.6875 93.9375 C160.23535156 94.94554687 160.78320312 95.95359375 161.34765625 96.9921875 C162.33960747 98.79786703 163.34359096 100.59712389 164.37109375 102.3828125 C167.46257347 107.75678659 169.80344599 113.20908488 172 119 C172.4021875 120.0003125 172.804375 121.000625 173.21875 122.03125 C177.47591814 132.72608705 180.79503942 143.69709395 183 155 C183.17402344 155.80566406 183.34804688 156.61132812 183.52734375 157.44140625 C191.98695736 200.8509564 184.10831356 252.44338308 159.53125 289.6015625 C157.86636101 291.99430806 157.86636101 291.99430806 157 295 C156.34 295 155.68 295 155 295 C154.896875 295.556875 154.79375 296.11375 154.6875 296.6875 C153.85821592 299.4769101 152.65700944 301.6139064 151 304 C150.34 304 149.68 304 149 304 C148.74605469 304.73605469 148.49210937 305.47210938 148.23046875 306.23046875 C146.92593939 309.16669515 145.49293817 310.96927863 143.3125 313.3125 C142.59449219 314.09367187 141.87648438 314.87484375 141.13671875 315.6796875 C140.43160156 316.44539063 139.72648437 317.21109375 139 318 C137.87143759 319.3094381 136.74626678 320.62180929 135.625 321.9375 C129.65748087 328.7653251 123.2709859 335.54676058 116 341 C115.34 341 114.68 341 114 341 C114 341.66 114 342.32 114 343 C108.58823529 347 108.58823529 347 106 347 C106 347.66 106 348.32 106 349 C100.70588235 353 100.70588235 353 97 353 C97 353.66 97 354.32 97 355 C95.96552734 355.56267578 95.96552734 355.56267578 94.91015625 356.13671875 C93.97042969 356.64847656 93.03070313 357.16023438 92.0625 357.6875 C91.05445313 358.23535156 90.04640625 358.78320312 89.0078125 359.34765625 C87.20213297 360.33960747 85.40287611 361.34359096 83.6171875 362.37109375 C78.24366259 365.46231507 72.79169656 367.80630145 67 370 C65.98808594 370.4021875 64.97617187 370.804375 63.93359375 371.21875 C50.68228858 376.44910872 37.96011071 379.75699116 23.87841797 381.67456055 C21.78211843 381.98949529 21.78211843 381.98949529 19 383 C16.4322824 383.23554374 13.88557921 383.42330627 11.3125 383.5625 C10.17844727 383.6251001 10.17844727 383.6251001 9.02148438 383.68896484 C1.34293614 384.08056441 -6.31201445 384.17600357 -14 384 C-14.6590332 383.98743164 -15.31806641 383.97486328 -15.99707031 383.96191406 C-42.96631815 383.32010098 -70.47127717 376.29744007 -94 363 C-94.92941406 362.51015625 -95.85882813 362.0203125 -96.81640625 361.515625 C-102.03419591 358.75457556 -107.1298237 355.79230957 -112.1875 352.75 C-113.29480469 352.08484375 -114.40210938 351.4196875 -115.54296875 350.734375 C-116.35378906 350.16203125 -117.16460937 349.5896875 -118 349 C-118 348.34 -118 347.68 -118 347 C-118.70382813 346.76667969 -119.40765625 346.53335937 -120.1328125 346.29296875 C-123.51087264 344.7696201 -126.0994549 342.71513364 -128.875 340.3125 C-129.4316333 339.83409668 -129.9882666 339.35569336 -130.56176758 338.86279297 C-141.79771718 329.05410002 -152.73889695 318.49856296 -161 306 C-161 305.34 -161 304.68 -161 304 C-161.66 304 -162.32 304 -163 304 C-164.10986328 302.58569336 -164.10986328 302.58569336 -165.3203125 300.58984375 C-165.76938965 299.85467529 -166.2184668 299.11950684 -166.68115234 298.36206055 C-167.39585693 297.16190308 -167.39585693 297.16190308 -168.125 295.9375 C-168.61564941 295.12128174 -169.10629883 294.30506348 -169.61181641 293.46411133 C-176.44024646 282.01474663 -182.66390997 270.65970981 -187 258 C-187.23960449 257.31486328 -187.47920898 256.62972656 -187.72607422 255.92382812 C-194.05985079 237.65748961 -197.65878345 219.33997905 -198 200 C-198.01514648 199.2889209 -198.03029297 198.5778418 -198.04589844 197.84521484 C-198.13828435 192.89355509 -198.10866333 187.95111753 -198 183 C-197.98743164 182.32146973 -197.97486328 181.64293945 -197.96191406 180.94384766 C-197.34163755 154.37955656 -190.08139731 127.14645301 -177 104 C-176.51015625 103.07058594 -176.0203125 102.14117187 -175.515625 101.18359375 C-172.75457556 95.96580409 -169.79230957 90.8701763 -166.75 85.8125 C-166.08484375 84.70519531 -165.4196875 83.59789062 -164.734375 82.45703125 C-163.87585938 81.24080078 -163.87585938 81.24080078 -163 80 C-162.34 80 -161.68 80 -161 80 C-160.78085938 79.3090625 -160.56171875 78.618125 -160.3359375 77.90625 C-158.63571931 74.20752972 -156.30095011 71.53509078 -153.625 68.5 C-152.65826463 67.38592796 -151.69210965 66.27135201 -150.7265625 65.15625 C-150.02781006 64.35525879 -150.02781006 64.35525879 -149.31494141 63.53808594 C-148.13208646 62.15450143 -146.99997903 60.72791451 -145.875 59.296875 C-144.15471077 57.1895207 -142.44959073 55.49795304 -140.375 53.75 C-137.14778064 50.99843424 -134.00055896 48.17916477 -130.875 45.3125 C-121.65465017 37 -121.65465017 37 -118 37 C-118 36.34 -118 35.68 -118 35 C-116.58569336 33.89013672 -116.58569336 33.89013672 -114.58984375 32.6796875 C-113.85499756 32.23069092 -113.12015137 31.78169434 -112.36303711 31.3190918 C-111.56260986 30.8425415 -110.76218262 30.36599121 -109.9375 29.875 C-109.11838135 29.38362549 -108.2992627 28.89225098 -107.45532227 28.38598633 C-104.97776325 26.91069399 -102.49139135 25.45179248 -100 24 C-99.32324219 23.60377441 -98.64648438 23.20754883 -97.94921875 22.79931641 C-89.0071283 17.62243847 -79.91269643 13.88510657 -70.09765625 10.68798828 C-68.02643144 10.00866897 -65.96581739 9.30364854 -63.90625 8.58984375 C-57.34100408 6.32630132 -50.84765384 4.20424257 -44 3 C-43.08734375 2.82726563 -42.1746875 2.65453125 -41.234375 2.4765625 C-27.7091578 0.13173841 -13.70938353 -0.37052388 0 0 Z " fill="#BDA37C" transform="translate(256,58)"/>
<path d="M0 0 C0.66273926 0.01401855 1.32547852 0.02803711 2.00830078 0.04248047 C30.77450062 0.66657382 58.79994577 8.01255417 84 22 C85.28252957 22.68737306 86.56640046 23.37224896 87.8515625 24.0546875 C90.91208743 25.68317221 93.95965914 27.3340598 97 29 C97 29.66 97 30.32 97 31 C97.8353125 31.1546875 97.8353125 31.1546875 98.6875 31.3125 C101.4769101 32.14178408 103.6139064 33.34299056 106 35 C106 35.66 106 36.32 106 37 C106.763125 37.28875 107.52625 37.5775 108.3125 37.875 C111 39 111 39 114 41 C114 41.66 114 42.32 114 43 C114.81210937 43.33644531 114.81210937 43.33644531 115.640625 43.6796875 C118.73785148 45.41290364 121.18028198 47.71076278 123.75 50.125 C124.27859619 50.61709961 124.80719238 51.10919922 125.35180664 51.61621094 C126.90754644 53.07091638 128.455197 54.53369413 130 56 C130.78761719 56.74507812 131.57523438 57.49015625 132.38671875 58.2578125 C136.4839107 62.23794182 139.75232237 66.30891009 143 71 C143.721875 71.70125 144.44375 72.4025 145.1875 73.125 C147.25655125 75.26539785 148.06582551 77.19747652 149 80 C149.66 80 150.32 80 151 80 C155 86.75 155 86.75 155 89 C155.66 89 156.32 89 157 89 C156.67 89.99 156.34 90.98 156 92 C154.02 92 152.04 92 150 92 C150 91.34 150 90.68 150 90 C149.34 90 148.68 90 148 90 C148.33 91.32 148.66 92.64 149 94 C148.01 94 147.02 94 146 94 C145.67 94.66 145.34 95.32 145 96 C144.34 96 143.68 96 143 96 C143.08378906 96.60328125 143.16757812 97.2065625 143.25390625 97.828125 C143.40666016 99.02695313 143.40666016 99.02695313 143.5625 100.25 C143.66691406 101.03890625 143.77132812 101.8278125 143.87890625 102.640625 C144.00027349 105.00532874 143.69633257 106.7511037 143 109 C142.4225 109.0825 141.845 109.165 141.25 109.25 C138.3840696 110.20531013 137.0009236 111.78469173 135 114 C133.02441406 112.86010742 133.02441406 112.86010742 131 111 C130.54589844 108.36450195 130.54589844 108.36450195 130.609375 105.23828125 C130.62226563 104.12001953 130.63515625 103.00175781 130.6484375 101.84960938 C130.69871094 100.09874023 130.69871094 100.09874023 130.75 98.3125 C130.76804687 97.13365234 130.78609375 95.95480469 130.8046875 94.74023438 C130.85188141 91.82601074 130.91770923 88.91340969 131 86 C132.98 85.34 134.96 84.68 137 84 C137 82.68 137 81.36 137 80 C138.32 80 139.64 80 141 80 C141.33 81.32 141.66 82.64 142 84 C142.33 83.34 142.66 82.68 143 82 C143.99 80.515 143.99 80.515 145 79 C145 78.01 145 77.02 145 76 C144.360625 75.71125 143.72125 75.4225 143.0625 75.125 C141 74 141 74 140 72 C139.01 71.67 138.02 71.34 137 71 C136.71125 69.9275 136.4225 68.855 136.125 67.75 C134.8489646 63.49654868 133.38126507 61.80397592 130 59 C129.01 58.67 128.02 58.34 127 58 C127 57.01 127 56.02 127 55 C125.68 55 124.36 55 123 55 C122.67 54.34 122.34 53.68 122 53 C119.97536745 52.34786708 119.97536745 52.34786708 118 52 C118 50.68 118 49.36 118 48 C117.484375 47.9175 116.96875 47.835 116.4375 47.75 C112.95544268 46.67859775 110.12799115 44.86476395 107 43 C106.21625 43.825 105.4325 44.65 104.625 45.5 C102 48 102 48 100 48 C99.67 49.32 99.34 50.64 99 52 C100.65 52.66 102.3 53.32 104 54 C104 55.65 104 57.3 104 59 C104.99 59 105.98 59 107 59 C107.268125 58.360625 107.53625 57.72125 107.8125 57.0625 C109 55 109 55 112 54 C112.33 54.99 112.66 55.98 113 57 C114.32 56.67 115.64 56.34 117 56 C117 57.32 117 58.64 117 60 C119.64 60 122.28 60 125 60 C125.33 60.66 125.66 61.32 126 62 C125.00522247 64.33556463 124.00484883 66.66875071 123 69 C123 70.32 123 71.64 123 73 C123.66 72.67 124.32 72.34 125 72 C125.33 72.66 125.66 73.32 126 74 C126.99 74.33 127.98 74.66 129 75 C128.34 76.65 127.68 78.3 127 80 C128.98 80 130.96 80 133 80 C132.67 80.99 132.34 81.98 132 83 C130.0390625 83.6953125 130.0390625 83.6953125 127.625 84.125 C124.96267247 84.61930837 122.5800298 85.13999007 120 86 C118.88784994 88.15017691 118.88784994 88.15017691 118 91 C117.77973145 91.60666504 117.55946289 92.21333008 117.33251953 92.83837891 C108.86531211 116.16961424 104.26615212 142.36612823 112.8671875 166.42578125 C114.70496001 171.63280336 115.21601299 176.41183901 115.17578125 181.9140625 C115.17263916 182.69228363 115.16949707 183.47050476 115.16625977 184.27230835 C115.05849809 194.41450294 114.26206351 204.51529839 113.5 214.625 C113.35487525 216.61454013 113.21034085 218.60412341 113.06640625 220.59375 C112.71771264 225.39635596 112.36113492 230.19831422 112 235 C111.01 235 110.02 235 109 235 C106.81222534 236.9375006 106.81222534 236.9375006 105 239 C103.45428722 236.68143083 102.20381448 234.49361571 101 232 C99.02 232.33 97.04 232.66 95 233 C95.47050781 231.8140625 95.94101562 230.628125 96.42578125 229.40625 C106.87261591 202.52697797 109.55360558 172.26338605 98.16308594 144.99658203 C86.65235443 119.30799829 66.66896263 98.97038529 40.3125 88.75 C14.00203154 79.20519283 -11.66351731 80.11594676 -38 89 C-38 86 -38 86 -36.5 84.3125 C-36.005 83.879375 -35.51 83.44625 -35 83 C-36.32 83 -37.64 83 -39 83 C-39.12375 82.195625 -39.2475 81.39125 -39.375 80.5625 C-39.58125 79.716875 -39.7875 78.87125 -40 78 C-40.66 77.67 -41.32 77.34 -42 77 C-42 74.69 -42 72.38 -42 70 C-40.68 70.33 -39.36 70.66 -38 71 C-37.67 70.01 -37.34 69.02 -37 68 C-35.515 67.505 -35.515 67.505 -34 67 C-34 66.34 -34 65.68 -34 65 C-34.99 64.67 -35.98 64.34 -37 64 C-37.54372951 60.94152152 -38 58.11227195 -38 55 C-37.01 54.505 -37.01 54.505 -36 54 C-36.33 53.67 -36.66 53.34 -37 53 C-37.99 53 -38.98 53 -40 53 C-40 54.65 -40 56.3 -40 58 C-41.32 58 -42.64 58 -44 58 C-44 57.34 -44 56.68 -44 56 C-44.99 56 -45.98 56 -47 56 C-47 55.34 -47 54.68 -47 54 C-45.02 54.33 -43.04 54.66 -41 55 C-40.87625 54.401875 -40.7525 53.80375 -40.625 53.1875 C-40 51 -40 51 -38 48 C-37.01 48 -36.02 48 -35 48 C-34.855625 47.360625 -34.71125 46.72125 -34.5625 46.0625 C-34 44 -34 44 -33 43 C-34.32 42.34 -35.64 41.68 -37 41 C-37.66 41.66 -38.32 42.32 -39 43 C-39.495 41.515 -39.495 41.515 -40 40 C-40.66 40 -41.32 40 -42 40 C-42.495 38.515 -42.495 38.515 -43 37 C-42.690625 36.401875 -42.38125 35.80375 -42.0625 35.1875 C-40.76868051 32.94601016 -40.76868051 32.94601016 -41.0625 29.9375 C-41 27 -41 27 -39.8125 25.0625 C-38 24 -38 24 -35.3125 24.3125 C-34.549375 24.539375 -33.78625 24.76625 -33 25 C-32.94552953 23.58376784 -32.90699492 22.16691809 -32.875 20.75 C-32.85179687 19.96109375 -32.82859375 19.1721875 -32.8046875 18.359375 C-33.02232364 15.73033049 -33.53709188 14.18951811 -35 12 C-35.99 11.67 -36.98 11.34 -38 11 C-38 10.34 -38 9.68 -38 9 C-37.05125 8.7525 -36.1025 8.505 -35.125 8.25 C-31.91753905 7.33044533 -31.91753905 7.33044533 -30.75 4.9375 C-30.5025 4.298125 -30.255 3.65875 -30 3 C-21.81095423 -1.09452288 -8.89968824 -0.32805034 0 0 Z M104 234 C105 236 105 236 105 236 Z M126 67 C128.475 67.495 128.475 67.495 131 68 C131.33 68.99 131.66 69.98 132 71 C130.5625 73.1875 130.5625 73.1875 129 75 C128.814375 73.8553125 128.814375 73.8553125 128.625 72.6875 C128.11897208 69.79732864 128.11897208 69.79732864 126 67 Z " fill="#B09873" transform="translate(256,58)"/>
<path d="M0 0 C0.85722656 0.268125 1.71445312 0.53625 2.59765625 0.8125 C22.01936728 7.36835182 36.2104542 19.95262766 45.3125 38.3125 C52.6386913 55.24059326 53.22723351 72.71850583 47 90 C39.95148965 107.12824536 28.20913725 120.9204971 11.1875 128.71484375 C-5.67291935 135.51273341 -25.56102337 137.39779571 -42.74609375 130.54296875 C-63.47663368 120.71276074 -76.04085043 106.26159817 -84.1015625 85.109375 C-89.4546697 67.59921127 -86.33922363 49.20777808 -78.25 33.1875 C-68.61417756 16.81643433 -54.32262949 5.40130136 -36.19921875 -0.16796875 C-24.59373651 -2.77828313 -11.46936041 -3.70386685 0 0 Z " fill="#3E2601" transform="translate(276,177)"/>
<path d="M0 0 C3.63 1.98 7.26 3.96 11 6 C11 7.32 11 8.64 11 10 C13.475 10.495 13.475 10.495 16 11 C16 11.66 16 12.32 16 13 C17.32 13 18.64 13 20 13 C20 13.99 20 14.98 20 16 C20.88945312 16.16435547 20.88945312 16.16435547 21.796875 16.33203125 C25.4648169 17.44412002 27.8211587 19.90262757 30 23 C30.375 26.375 30.375 26.375 30 29 C30.639375 29.12375 31.27875 29.2475 31.9375 29.375 C32.9584375 29.684375 32.9584375 29.684375 34 30 C34.495 30.99 34.495 30.99 35 32 C37.01669827 33.13350534 37.01669827 33.13350534 39 34 C38.50168276 37.68754757 37.89932357 39.60490662 35 42 C34.01 41.505 34.01 41.505 33 41 C33.33 40.01 33.66 39.02 34 38 C32.68 38 31.36 38 30 38 C30 39.32 30 40.64 30 42 C29.18724609 42.46462646 28.37449219 42.92925293 27.53710938 43.40795898 C24.75365141 44.74422747 24.75365141 44.74422747 24.38476562 47.51196289 C24.39185547 48.4889917 24.39894531 49.46602051 24.40625 50.47265625 C24.41011719 52.06883789 24.41011719 52.06883789 24.4140625 53.69726562 C24.44242187 54.80779297 24.47078125 55.91832031 24.5 57.0625 C24.49742187 58.17689453 24.49484375 59.29128906 24.4921875 60.43945312 C24.51039076 64.74125515 24.51039076 64.74125515 25 69 C25.99 69.66 26.98 70.32 28 71 C29.65 69.35 31.3 67.7 33 66 C33.99 66.33 34.98 66.66 36 67 C36 62.71 36 58.42 36 54 C36.66 54 37.32 54 38 54 C38.33 53.01 38.66 52.02 39 51 C39.99 51.495 39.99 51.495 41 52 C41 50.68 41 49.36 41 48 C41.66 48 42.32 48 43 48 C43 48.66 43 49.32 43 50 C43.886875 49.731875 44.77375 49.46375 45.6875 49.1875 C49 49 49 49 51.484375 51.1015625 C57.88929661 58.48114609 61.61591197 67.92073944 65 77 C65.59941406 78.49273437 65.59941406 78.49273437 66.2109375 80.015625 C70.4747291 90.71386574 73.79399259 101.69172777 76 113 C76.26103516 114.20849609 76.26103516 114.20849609 76.52734375 115.44140625 C84.98695736 158.8509564 77.10831356 210.44338308 52.53125 247.6015625 C50.86636101 249.99430806 50.86636101 249.99430806 50 253 C49.34 253 48.68 253 48 253 C47.896875 253.556875 47.79375 254.11375 47.6875 254.6875 C46.85821592 257.4769101 45.65700944 259.6139064 44 262 C43.34 262 42.68 262 42 262 C41.74734375 262.73476563 41.4946875 263.46953125 41.234375 264.2265625 C39.91678601 267.18696815 38.45058953 269.01235155 36.25 271.375 C33.68863048 274.15406277 31.20117824 276.94654252 28.8125 279.875 C26.48978987 282.60797143 24.21928466 284.34685382 21 286 C20.01 286.66 19.02 287.32 18 288 C17.01 288 16.02 288 15 288 C14.67 289.65 14.34 291.3 14 293 C12.68 293 11.36 293 10 293 C9.67 294.32 9.34 295.64 9 297 C7.35 297.33 5.7 297.66 4 298 C4.33 297.34 4.66 296.68 5 296 C5.66 296.33 6.32 296.66 7 297 C6.34 294.69 5.68 292.38 5 290 C4.01 290 3.02 290 2 290 C2 290.66 2 291.32 2 292 C1.34 292 0.68 292 0 292 C0 292.66 0 293.32 0 294 C-0.66 294 -1.32 294 -2 294 C-2.66 291.03 -3.32 288.06 -4 285 C-3.34 285 -2.68 285 -2 285 C-1.67 283.35 -1.34 281.7 -1 280 C0.98 280.33 2.96 280.66 5 281 C4.79375 280.113125 4.5875 279.22625 4.375 278.3125 C4 275 4 275 5.0625 272.375 C6.3019045 270.01471463 6.3019045 270.01471463 5.125 267.6875 C4.75375 267.130625 4.3825 266.57375 4 266 C3.34 266.66 2.68 267.32 2 268 C2 266.02 2 264.04 2 262 C1.0409375 261.566875 1.0409375 261.566875 0.0625 261.125 C-2 260 -2 260 -3 258 C-2.01 258.33 -1.02 258.66 0 259 C0.33 258.34 0.66 257.68 1 257 C2.32 257 3.64 257 5 257 C6.75 259 6.75 259 8 261 C8.99 260.01 9.98 259.02 11 258 C12.32 258.66 13.64 259.32 15 260 C13.35 261.65 11.7 263.3 10 265 C11.32 265.66 12.64 266.32 14 267 C15.96189209 263.3321148 17.39301257 260.12751449 18 256 C18.99 255.67 19.98 255.34 21 255 C21.66 254.01 22.32 253.02 23 252 C20.71621256 250.85810628 19.22336812 250.86933497 16.6875 250.75 C13.25360406 250.37459015 12.01989294 250.01354413 9.0625 248 C4.34677207 241.14075937 4.70267674 232.74155421 4.734375 224.6875 C4.73173645 223.61248734 4.7290979 222.53747467 4.72637939 221.42988586 C4.72256493 217.95313776 4.73518679 214.47671509 4.75 211 C4.75265869 209.22222672 4.75265869 209.22222672 4.75537109 207.40853882 C4.78067388 193.01477996 5.00639488 178.67382028 6 164.3125 C6.08999268 163.00273193 6.17998535 161.69296387 6.27270508 160.34350586 C6.44104994 157.94831089 6.61061857 155.55320144 6.78173828 153.15820312 C7.6581806 140.47625923 7.07607058 130.0668786 3.19140625 117.890625 C-3.7420023 95.7808142 0.91874318 66.52398778 11.5 46.10546875 C13.3800759 43.46650804 15.04348326 42.1751136 18.26171875 41.5859375 C19.06222656 41.51632813 19.86273438 41.44671875 20.6875 41.375 C21.49574219 41.30023438 22.30398438 41.22546875 23.13671875 41.1484375 C23.75160156 41.09945312 24.36648438 41.05046875 25 41 C24.67 40.34 24.34 39.68 24 39 C21.97536745 38.34786708 21.97536745 38.34786708 20 38 C20.66 36.35 21.32 34.7 22 33 C19.50935112 32.31292445 17.62113708 32 15 32 C15.11509661 30.58249437 15.24253658 29.16598831 15.375 27.75 C15.44460938 26.96109375 15.51421875 26.1721875 15.5859375 25.359375 C16.01507113 22.914123 16.78600638 21.15163097 18 19 C15.98177083 18.83723958 13.96354167 18.67447917 11.9453125 18.51171875 C10 18 10 18 8 15 C7.01 15 6.02 15 5 15 C4.67 14.34 4.34 13.68 4 13 C3.01 13.66 2.02 14.32 1 15 C1 15.99 1 16.98 1 18 C-0.65 17.67 -2.3 17.34 -4 17 C-4 15.35 -4 13.7 -4 12 C-5.65 11.67 -7.3 11.34 -9 11 C-8.34 9.35 -7.68 7.7 -7 6 C-6.34 6 -5.68 6 -5 6 C-4.67 5.01 -4.34 4.02 -4 3 C-2.68 2.01 -1.36 1.02 0 0 Z M19 25 C19.99 26.485 19.99 26.485 21 28 C21.38499891 29.65549531 21.72793135 31.3222433 22 33 C22.99 31.68 23.98 30.36 25 29 C24.34 27.68 23.68 26.36 23 25 C21.68 25 20.36 25 19 25 Z M21 39 C23 40 23 40 23 40 Z " fill="#AE9672" transform="translate(363,100)"/>
<path d="M0 0 C0.83660156 0.60457031 1.67320312 1.20914063 2.53515625 1.83203125 C20.20876163 15.24430365 32.0469245 34.59984892 36.53125 56.30078125 C39.52123951 79.89678181 35.18975382 104.2270907 21.015625 123.73046875 C17.5913708 128.08802532 14.06541012 132.22497632 10 136 C9.02740234 136.98033203 9.02740234 136.98033203 8.03515625 137.98046875 C-7.86182609 153.34843337 -29.26531826 160.94302503 -51.1875 161.3125 C-76.4245514 160.62028373 -99.27102088 150.78201912 -116.83984375 132.51171875 C-127.57337765 120.03131677 -133.3955717 106.60192822 -138 91 C-138.33 90.01 -138.66 89.02 -139 88 C-140.82476229 59.53832788 -137.2467626 36.18199872 -118 14 C-117.21625 12.96875 -116.4325 11.9375 -115.625 10.875 C-86.44887053 -21.07980847 -34.49350215 -25.44240719 0 0 Z M-103 28 C-116.44700081 43.50742835 -121.05301018 61.40626212 -120.18652344 81.47509766 C-118.92837341 98.50623324 -109.35417118 114.65985107 -97 126 C-84.35461652 136.71369831 -69.8888502 142.60544951 -53.3125 142.4375 C-52.26030273 142.42992676 -51.20810547 142.42235352 -50.12402344 142.41455078 C-30.5958184 142.00409296 -14.13460034 134.54435364 -0.55859375 120.46875 C11.32534541 106.7951821 18.21885771 89.3200162 17.375 71.10546875 C15.80068867 50.57546502 6.84162257 34.0150928 -8.69140625 20.69140625 C-37.53408604 -1.51787702 -78.04502762 1.51541844 -103 28 Z " fill="#EAD2AC" transform="translate(310,169)"/>
<path d="M0 0 C19.88833556 16.65301044 35.09371268 40.20584134 37.61865234 66.48266602 C39.69941883 97.13686919 34.13029884 125.10950301 13.78637695 148.95361328 C-1.387764 166.03778597 -20.05634275 177.32229112 -42.21362305 182.95361328 C-42.94009033 183.13980225 -43.66655762 183.32599121 -44.41503906 183.51782227 C-67.90630901 188.89737367 -93.11792283 185.24140886 -114.21362305 173.95361328 C-115.05795898 173.50373047 -115.90229492 173.05384766 -116.7722168 172.59033203 C-143.65115025 157.32309783 -160.04255922 133.36822078 -168.21362305 103.95361328 C-175.21050505 76.68132208 -168.27263247 48.49776644 -154.32250977 24.7109375 C-151.40847051 20.09287177 -147.81170403 16.04075381 -144.21362305 11.95361328 C-143.42987305 10.92236328 -142.64612305 9.89111328 -141.83862305 8.82861328 C-105.28533569 -31.20593953 -41.17196066 -33.25177715 0 0 Z M-122.21362305 10.95361328 C-123.24487305 11.71673828 -124.27612305 12.47986328 -125.33862305 13.26611328 C-140.99892572 27.90509186 -152.87149736 49.09486155 -153.7800293 70.75830078 C-153.80704228 73.4528461 -153.81020402 76.13537624 -153.77612305 78.82861328 C-153.77286011 79.52850372 -153.76959717 80.22839417 -153.76623535 80.94949341 C-153.69322141 91.69159284 -152.68825645 101.06027642 -148.21362305 110.95361328 C-147.89135742 111.78505859 -147.5690918 112.61650391 -147.23706055 113.47314453 C-146.33683647 115.70804864 -145.32142948 117.81440086 -144.21362305 119.95361328 C-143.75729492 120.86111328 -143.3009668 121.76861328 -142.83081055 122.70361328 C-132.34513557 142.1553002 -113.96046356 156.72949657 -93.21362305 163.95361328 C-68.97867999 170.72142472 -44.98347984 169.06374069 -22.77612305 157.10205078 C-1.91780623 144.75432078 13.5895876 126.65491768 20.04418945 103.03564453 C20.28911133 102.01857422 20.5340332 101.00150391 20.78637695 99.95361328 C21.01067383 99.04998047 21.2349707 98.14634766 21.46606445 97.21533203 C26.14629928 74.55145514 21.94868043 51.55303595 9.78637695 31.95361328 C6.73446962 27.37818408 3.3566207 23.13268998 -0.21362305 18.95361328 C-0.7859668 18.27943359 -1.35831055 17.60525391 -1.94799805 16.91064453 C-16.57962497 1.08385996 -39.31594466 -8.42167781 -60.52612305 -9.30419922 C-83.93551684 -9.93783695 -103.83108507 -3.89506819 -122.21362305 10.95361328 Z " fill="#3F2702" transform="translate(324.213623046875,162.04638671875)"/>
<path d="M0 0 C1.32 0 2.64 0 4 0 C4.01458252 0.97646484 4.02916504 1.95292969 4.04418945 2.95898438 C4.10320652 6.66455478 4.18040642 10.36958105 4.26245117 14.07470703 C4.29522403 15.66283177 4.32339515 17.25105972 4.34643555 18.83935547 C4.5104825 29.86191427 5.61168957 40.23276964 8 51 C9.65 51 11.3 51 13 51 C14.07630683 46.57984317 14.20026502 42.22365373 14.28125 37.69921875 C14.30886414 36.50641045 14.30886414 36.50641045 14.33703613 35.289505 C14.3955297 32.75557533 14.44841692 30.22157917 14.5 27.6875 C14.5682037 24.35794845 14.6419507 21.02858182 14.71875 17.69921875 C14.73232544 16.94686447 14.74590088 16.19451019 14.7598877 15.4193573 C14.87233663 10.54926837 15.32647193 5.82547412 16 1 C17.65614657 0.61781233 19.32457024 0.28604898 21 0 C22.54529597 1.54529597 22.15498232 3.0130521 22.18945312 5.16503906 C22.20617065 6.04975891 22.22288818 6.93447876 22.2401123 7.8460083 C22.25368774 8.80948181 22.26726318 9.77295532 22.28125 10.765625 C22.30886414 12.24394806 22.30886414 12.24394806 22.33703613 13.75213623 C22.39598709 16.91802808 22.44867981 20.0839758 22.5 23.25 C22.56774034 27.40115355 22.64151213 31.55213861 22.71875 35.703125 C22.73232544 36.65850159 22.74590088 37.61387817 22.7598877 38.59820557 C22.77660522 39.49553406 22.79332275 40.39286255 22.81054688 41.31738281 C22.82307495 42.10268372 22.83560303 42.88798462 22.84851074 43.69708252 C23.0130939 46.19905159 23.45907533 48.55407095 24 51 C25.98 51 27.96 51 30 51 C33.05706117 44.27446543 33.16381908 37.26303732 33.31640625 30.00390625 C33.33718735 29.17036118 33.35796844 28.3368161 33.37937927 27.47801208 C33.44427856 24.83958439 33.50347978 22.20106509 33.5625 19.5625 C33.60574206 17.76366276 33.64935808 15.96483446 33.69335938 14.16601562 C33.79989799 9.7774354 33.90132975 5.3887639 34 1 C35.65 0.67 37.3 0.34 39 0 C43.20770204 8.41540408 41.24032448 21.6285653 41.25 31 C41.25133942 31.76880493 41.25267883 32.53760986 41.25405884 33.32971191 C41.24162065 66.31579348 41.24162065 66.31579348 35 76 C33.47349559 77.44466765 31.94129873 78.88333053 30.40527344 80.31787109 C25.57242375 85.64704854 25.05377266 89.4767073 25.28517151 96.52894592 C25.37557527 97.86049336 25.46673809 99.19198944 25.55859375 100.5234375 C25.62087107 101.93723071 25.67874411 103.35122384 25.73252869 104.7653656 C25.85449606 107.7579989 26.00426546 110.74733917 26.17718506 113.73745728 C26.44586862 118.40096803 26.64806668 123.06579168 26.83642578 127.7331543 C27.02736182 132.41018403 27.21996277 137.08698964 27.43359375 141.76304626 C27.98434898 153.85515481 28.33043571 165.93701645 28.36355591 178.04302979 C28.37472714 180.74646877 28.41238123 183.44869107 28.45092773 186.15185547 C28.45622559 187.77440884 28.45968811 189.39696971 28.4609375 191.01953125 C28.47527328 191.72162216 28.48960907 192.42371307 28.50437927 193.14707947 C28.45525731 198.44792555 26.93027057 202.64370288 24 207 C20.89951072 208.55024464 18.42105782 208.28992015 15 208 C11.61060444 205.86320715 10.27417443 204.8225233 9 201 C8.89937684 199.61948175 8.85175245 198.23470646 8.83886719 196.85058594 C8.82463715 195.58260918 8.82463715 195.58260918 8.81011963 194.28901672 C8.8057489 193.36348495 8.80137817 192.43795319 8.796875 191.484375 C8.78669342 190.01553108 8.78669342 190.01553108 8.77630615 188.51701355 C8.75908282 185.26131096 8.75307082 182.00574553 8.75 178.75 C8.74766357 177.63529327 8.74532715 176.52058655 8.74291992 175.37210083 C8.72657742 154.48471394 9.64988901 133.69669019 10.93261719 112.85253906 C11.00152161 111.73164383 11.07042603 110.6107486 11.14141846 109.45588684 C11.2712843 107.37563391 11.40472086 105.29559906 11.54266357 103.21586609 C11.71800674 100.47785703 11.86714842 97.74037776 12 95 C12.05099854 94.08066681 12.10199707 93.16133362 12.15454102 92.21414185 C12.18410889 91.32951263 12.21367676 90.44488342 12.24414062 89.53344727 C12.27592407 88.75002457 12.30770752 87.96660187 12.3404541 87.15943909 C11.78769194 83.6533682 9.58536184 81.92828525 6.921875 79.765625 C2.22404824 75.44973537 0.25341137 70.6303907 -0.73046875 64.453125 C-0.91321602 63.35559906 -0.91321602 63.35559906 -1.09965515 62.23590088 C-2.38757908 53.68124198 -2.41589317 45.12091412 -2.33618164 36.48730469 C-2.31240169 33.73863667 -2.31567449 30.99093392 -2.32226562 28.2421875 C-2.30574481 18.63420238 -1.90591853 9.44777014 0 0 Z " fill="#402803" transform="translate(114,141)"/>
<path d="M0 0 C2.62261816 3.93392724 2.25050988 7.2492496 2.1953125 11.80957031 C2.19239197 12.71296646 2.18947144 13.61636261 2.1864624 14.5471344 C2.17883627 16.51795875 2.16658834 18.48876928 2.15032959 20.45954132 C2.12465189 23.62098406 2.11172382 26.78225683 2.10205078 29.94378662 C2.07536822 37.83071477 2.02804107 45.71749107 1.97924805 53.60430908 C1.93239456 61.28305854 1.89533704 68.96175673 1.875 76.640625 C1.8720417 77.72465544 1.8690834 78.80868587 1.86603546 79.92556572 C1.83864257 95.88147057 2.32324938 111.74156528 3.26605225 127.66731262 C4.03984909 140.78550425 4.30963015 153.85693869 4.26074219 167.0012207 C4.24964486 170.55110438 4.26095401 174.10051834 4.2734375 177.65039062 C4.27212116 179.9531261 4.26956976 182.25586128 4.265625 184.55859375 C4.26967346 185.5980162 4.27372192 186.63743866 4.27789307 187.70835876 C4.1882415 201.56862056 4.1882415 201.56862056 -0.25 206.5 C-3.59022417 208.32194046 -5.25338138 208.70249099 -9 208 C-13.54920574 204.79487777 -14.5660878 201.76142681 -15.61608887 196.59399414 C-16.3013506 191.96384727 -16.28401471 187.36004872 -16.265625 182.6875 C-16.26826355 181.61248734 -16.2709021 180.53747467 -16.27362061 179.42988586 C-16.27743507 175.95313776 -16.26481321 172.47671509 -16.25 169 C-16.24822754 167.81481781 -16.24645508 166.62963562 -16.24462891 165.40853882 C-16.21932612 151.01477996 -15.99360512 136.67382028 -15 122.3125 C-14.86501099 120.3478479 -14.86501099 120.3478479 -14.72729492 118.34350586 C-14.55895006 115.94831089 -14.38938143 113.55320144 -14.21826172 111.15820312 C-13.3418194 98.47625923 -13.92392942 88.0668786 -17.80859375 75.890625 C-24.7420023 53.7808142 -20.08125682 24.52398778 -9.5 4.10546875 C-6.84404835 0.37745329 -4.43004126 -0.56795401 0 0 Z " fill="#3E2602" transform="translate(384,142)"/>
<path d="M0 0 C0.80050781 0.44214844 1.60101563 0.88429687 2.42578125 1.33984375 C3.96268204 2.20531293 5.48435229 3.09782875 7 4 C7 4.66 7 5.32 7 6 C8.485 6.495 8.485 6.495 10 7 C11.6875 8.4375 11.6875 8.4375 13 10 C13 10.66 13 11.32 13 12 C13.66 12 14.32 12 15 12 C20 17.47619048 20 17.47619048 20 20 C20.66 20 21.32 20 22 20 C26.26863214 27.45177019 29.98981723 34.95149712 33 43 C33.32226562 43.84820312 33.64453125 44.69640625 33.9765625 45.5703125 C39.63539099 62.86411545 35.98190596 84.08166902 28 100 C18.24945298 118.98940353 1.43860554 132.31815599 -18.62890625 139 C-38.23159387 144.81493399 -59.8128535 142.61600608 -77.9375 133.0625 C-82.01289326 130.70901997 -85.62446751 128.28430188 -89 125 C-89 124.34 -89 123.68 -89 123 C-90.32 122.67 -91.64 122.34 -93 122 C-93 121.34 -93 120.68 -93 120 C-93.66 120 -94.32 120 -95 120 C-95 119.34 -95 118.68 -95 118 C-95.99 117.67 -96.98 117.34 -98 117 C-99.58905971 115.00709086 -101.02510716 113.04920168 -102.4375 110.9375 C-102.83928467 110.34477295 -103.24106934 109.7520459 -103.6550293 109.14135742 C-106.4942146 104.89445526 -108.99000951 100.68997782 -111 96 C-111.34675781 95.24589844 -111.69351563 94.49179687 -112.05078125 93.71484375 C-119.08141218 77.58274151 -119.57715832 56.69868256 -113.81005859 40.04003906 C-110.74849197 32.32983692 -106.59423407 24.89135111 -102 18 C-101.34 18 -100.68 18 -100 18 C-99.73445313 17.40960938 -99.46890625 16.81921875 -99.1953125 16.2109375 C-92.30240912 3.46131883 -74.64237633 -4.83667459 -61.375 -8.9375 C-39.97901723 -14.76925704 -18.99826786 -10.59282464 0 0 Z M-92 19 C-105.44700081 34.50742835 -110.05301018 52.40626212 -109.18652344 72.47509766 C-107.92837341 89.50623324 -98.35417118 105.65985107 -86 117 C-73.35461652 127.71369831 -58.8888502 133.60544951 -42.3125 133.4375 C-41.26030273 133.42992676 -40.20810547 133.42235352 -39.12402344 133.41455078 C-19.5958184 133.00409296 -3.13460034 125.54435364 10.44140625 111.46875 C22.32534541 97.7951821 29.21885771 80.3200162 28.375 62.10546875 C26.80068867 41.57546502 17.84162257 25.0150928 2.30859375 11.69140625 C-26.53408604 -10.51787702 -67.04502762 -7.48458156 -92 19 Z " fill="#FAE3BD" transform="translate(299,178)"/>
<path d="M0 0 C4.29 0 8.58 0 13 0 C13 15.51 13 31.02 13 47 C14.65 47.66 16.3 48.32 18 49 C20.23214832 50.2277772 22.43006663 51.47681521 24.62109375 52.7734375 C25.24347427 53.13845367 25.8658548 53.50346985 26.50709534 53.87954712 C27.8182793 54.64949783 29.12847926 55.42112643 30.43774414 56.19433594 C32.4255627 57.36795217 34.41659159 58.53595945 36.40820312 59.703125 C37.68769413 60.45539908 38.96699721 61.2079929 40.24609375 61.9609375 C40.83378036 62.3058725 41.42146698 62.6508075 42.02696228 63.00619507 C45.77265493 65.22166113 49.39960704 67.55927523 53 70 C51.02 73.63 49.04 77.26 47 81 C43.17033018 79.46813207 40.09189117 77.97705821 36.60546875 75.875 C35.57421875 75.25512207 34.54296875 74.63524414 33.48046875 73.99658203 C32.39378906 73.33770996 31.30710937 72.67883789 30.1875 72 C28.52074219 70.99428955 28.52074219 70.99428955 26.8203125 69.96826172 C1.89595977 54.89595977 1.89595977 54.89595977 0 53 C-0.09346915 51.34261557 -0.11744977 49.68125356 -0.11352539 48.02124023 C-0.11344986 46.96021591 -0.11337433 45.89919159 -0.11329651 44.80601501 C-0.10813522 43.651866 -0.10297394 42.49771698 -0.09765625 41.30859375 C-0.0962413 40.13361832 -0.09482635 38.95864288 -0.09336853 37.74806213 C-0.08774992 33.97784936 -0.07519426 30.20769496 -0.0625 26.4375 C-0.0574874 23.88867273 -0.05292408 21.33984453 -0.04882812 18.79101562 C-0.03777444 12.5273211 -0.02049734 6.26367046 0 0 Z " fill="#E9D1AB" transform="translate(250,197)"/>
<path d="M0 0 C0.71542969 0.43570312 1.43085938 0.87140625 2.16796875 1.3203125 C27.29771455 16.33964311 48.4197625 18.83134138 77 18 C76.67 18.66 76.34 19.32 76 20 C75.34 20 74.68 20 74 20 C74 20.66 74 21.32 74 22 C73.34 22 72.68 22 72 22 C72.350625 22.70125 72.70125 23.4025 73.0625 24.125 C74.17090287 27.52410212 73.67746456 29.53740334 73 33 C73.33 33.99 73.66 34.98 74 36 C73.34 36 72.68 36 72 36 C72.99 38.97 72.99 38.97 74 42 C73.01 42.495 73.01 42.495 72 43 C71.34227572 46.02934491 71.34227572 46.02934491 71 49 C69.02 48.505 69.02 48.505 67 48 C66.505 48.99 66.505 48.99 66 50 C65.34 49.67 64.68 49.34 64 49 C64.26041667 47.046875 64.52083333 45.09375 64.78125 43.140625 C65.06777357 40.69541605 65.06777357 40.69541605 65 37 C64.01 37 63.02 37 62 37 C61.7525 36.38125 61.505 35.7625 61.25 35.125 C59.76327031 32.59755953 58.65390305 32.12589826 56 31 C55.01 30.34 54.02 29.68 53 29 C53.66 29 54.32 29 55 29 C54.01 28.01 53.02 27.02 52 26 C51.01 26.495 51.01 26.495 50 27 C50 26.34 50 25.68 50 25 C49.01 25.33 48.02 25.66 47 26 C47 26.99 47 27.98 47 29 C45.33333333 29 43.66666667 29 42 29 C41.34 26.69 40.68 24.38 40 22 C39.67 22.66 39.34 23.32 39 24 C38.01 23.67 37.02 23.34 36 23 C35.67 23.66 35.34 24.32 35 25 C32.625 26.25 32.625 26.25 30 27 C27 25 27 25 26 23 C24.68 23 23.36 23 22 23 C21.34 23 20.68 23 20 23 C20 21.68 20 20.36 20 19 C20.66 19 21.32 19 22 19 C22 18.34 22 17.68 22 17 C20.35 17.33 18.7 17.66 17 18 C17.66 18 18.32 18 19 18 C18.67 20.64 18.34 23.28 18 26 C17.34 25.34 16.68 24.68 16 24 C13.50447516 24.78130071 13.50447516 24.78130071 11 26 C10.67 26.99 10.34 27.98 10 29 C9 27 9 27 9.8125 24.4375 C11 22 11 22 13 21 C12.67 20.34 12.34 19.68 12 19 C12.99 19 13.98 19 15 19 C15.33 17.68 15.66 16.36 16 15 C15.67 15.33 15.34 15.66 15 16 C14.34 16.66 13.68 17.32 13 18 C12.34 18 11.68 18 11 18 C10.01 18.33 9.02 18.66 8 19 C6.87050779 21.80376352 6.87050779 21.80376352 6 25 C5.34588315 26.67163195 4.68346682 28.34015202 4 30 C2 29 2 29 1 26 C-0.29355827 24.62804426 -1.62298702 23.28817344 -3 22 C-1.87548273 19.0280615 -0.77706209 16.66559313 1 14 C1.350625 13.29875 1.70125 12.5975 2.0625 11.875 C3 10 3 10 4 9 C1.69 9 -0.62 9 -3 9 C-3 8.34 -3 7.68 -3 7 C-3.66 6.34 -4.32 5.68 -5 5 C-4.67 4.01 -4.34 3.02 -4 2 C-3.01 2 -2.02 2 -1 2 C-0.67 1.34 -0.34 0.68 0 0 Z " fill="#B59D77" transform="translate(198,328)"/>
<path d="M0 0 C0.66 0 1.32 0 2 0 C2.01458252 0.59312988 2.02916504 1.18625977 2.04418945 1.79736328 C2.41444938 15.31773817 3.10751815 27.90000352 7.6875 40.75 C9.03544915 45.15090757 9.20916751 49.34804837 9.17578125 53.9140625 C9.17263916 54.69228363 9.16949707 55.47050476 9.16625977 56.27230835 C9.05849809 66.41450294 8.26206351 76.51529839 7.5 86.625 C7.35487525 88.61454013 7.21034085 90.60412341 7.06640625 92.59375 C6.71771264 97.39635596 6.36113492 102.19831422 6 107 C5.01 107 4.02 107 3 107 C0.81222534 108.9375006 0.81222534 108.9375006 -1 111 C-2.54571278 108.68143083 -3.79618552 106.49361571 -5 104 C-7.97 104.495 -7.97 104.495 -11 105 C-10.52949219 103.8140625 -10.05898438 102.628125 -9.57421875 101.40625 C0.92844085 74.3833427 3.47693764 44.08502548 -7.9609375 16.69921875 C-8.24195313 16.09722656 -8.52296875 15.49523437 -8.8125 14.875 C-10 12 -10 12 -9.6875 9.5625 C-9.460625 9.046875 -9.23375 8.53125 -9 8 C-7.33388095 7.957279 -5.66617115 7.95936168 -4 8 C-3.67 8.33 -3.34 8.66 -3 9 C-2.67 6.69 -2.34 4.38 -2 2 C-1.34 2 -0.68 2 0 2 C0 1.34 0 0.68 0 0 Z M-2 106 C-1 108 -1 108 -1 108 Z " fill="#AB936F" transform="translate(362,186)"/>
<path d="M0 0 C3.0831351 1.19899698 6.06279492 2.47700477 9 4 C9 4.66 9 5.32 9 6 C9.556875 6.103125 10.11375 6.20625 10.6875 6.3125 C13.4769101 7.14178408 15.6139064 8.34299056 18 10 C18 10.66 18 11.32 18 12 C18.763125 12.28875 19.52625 12.5775 20.3125 12.875 C23 14 23 14 26 16 C26 16.66 26 17.32 26 18 C26.54140625 18.22429687 27.0828125 18.44859375 27.640625 18.6796875 C30.73785148 20.41290364 33.18028198 22.71076278 35.75 25.125 C36.27859619 25.61709961 36.80719238 26.10919922 37.35180664 26.61621094 C38.90754644 28.07091638 40.455197 29.53369413 42 31 C42.78761719 31.74507812 43.57523437 32.49015625 44.38671875 33.2578125 C48.4839107 37.23794182 51.75232237 41.30891009 55 46 C55.721875 46.70125 56.44375 47.4025 57.1875 48.125 C59.25655125 50.26539785 60.06582551 52.19747652 61 55 C61.66 55 62.32 55 63 55 C67 61.75 67 61.75 67 64 C67.66 64 68.32 64 69 64 C68.505 65.485 68.505 65.485 68 67 C66.02 67 64.04 67 62 67 C62 66.34 62 65.68 62 65 C61.34 65 60.68 65 60 65 C60.33 66.32 60.66 67.64 61 69 C60.01 69 59.02 69 58 69 C57.67 69.66 57.34 70.32 57 71 C56.34 71 55.68 71 55 71 C55.08378906 71.60328125 55.16757812 72.2065625 55.25390625 72.828125 C55.40666016 74.02695313 55.40666016 74.02695313 55.5625 75.25 C55.71912109 76.43335938 55.71912109 76.43335938 55.87890625 77.640625 C56.00027349 80.00532874 55.69633257 81.7511037 55 84 C54.4225 84.0825 53.845 84.165 53.25 84.25 C50.3840696 85.20531013 49.0009236 86.78469173 47 89 C45.02441406 87.86010742 45.02441406 87.86010742 43 86 C42.54589844 83.36450195 42.54589844 83.36450195 42.609375 80.23828125 C42.62226563 79.12001953 42.63515625 78.00175781 42.6484375 76.84960938 C42.68195313 75.68236328 42.71546875 74.51511719 42.75 73.3125 C42.76804687 72.13365234 42.78609375 70.95480469 42.8046875 69.74023438 C42.85188141 66.82601074 42.91770923 63.91340969 43 61 C44.98 60.34 46.96 59.68 49 59 C49 57.68 49 56.36 49 55 C50.32 55 51.64 55 53 55 C53.495 56.98 53.495 56.98 54 59 C54.495 58.01 54.495 58.01 55 57 C55.66 56.01 56.32 55.02 57 54 C57 53.01 57 52.02 57 51 C56.360625 50.71125 55.72125 50.4225 55.0625 50.125 C53 49 53 49 52 47 C51.01 46.67 50.02 46.34 49 46 C48.71125 44.9275 48.4225 43.855 48.125 42.75 C46.8489646 38.49654868 45.38126507 36.80397592 42 34 C41.01 33.67 40.02 33.34 39 33 C39 32.01 39 31.02 39 30 C37.68 30 36.36 30 35 30 C34.505 29.01 34.505 29.01 34 28 C31.97536745 27.34786708 31.97536745 27.34786708 30 27 C30 25.68 30 24.36 30 23 C29.41734375 22.88269531 28.8346875 22.76539062 28.234375 22.64453125 C25.87265915 21.96326706 24.2669629 21.07954918 22.25 19.6875 C21.63640625 19.27886719 21.0228125 18.87023437 20.390625 18.44921875 C19 17 19 17 19 13 C18.113125 13.103125 17.22625 13.20625 16.3125 13.3125 C11.93476081 12.89950574 10.85503861 11.23070159 8 8 C4.96123694 5.33819054 4.96123694 5.33819054 1 5 C0.67 5.99 0.34 6.98 0 8 C-0.79953138 4.71303767 -1.09658936 3.28976808 0 0 Z " fill="#AE9672" transform="translate(344,83)"/>
<path d="M0 0 C0.99 0.33 1.98 0.66 3 1 C3.495 4.465 3.495 4.465 4 8 C3.01 8 2.02 8 1 8 C1.04125 8.763125 1.0825 9.52625 1.125 10.3125 C1 13 1 13 -1 16 C-0.34 16.66 0.32 17.32 1 18 C0.01 18.495 0.01 18.495 -1 19 C-3.625 18.0625 -3.625 18.0625 -6 17 C-8.40348914 19.87869923 -8.40348914 19.87869923 -7.5 23.375 C-6.98195629 27.13081692 -7.29852865 28.69714386 -9 32 C-8.34 32 -7.68 32 -7 32 C-7 32.66 -7 33.32 -7 34 C-8.98 34.495 -8.98 34.495 -11 35 C-10.34 35.33 -9.68 35.66 -9 36 C-9.33 36.99 -9.66 37.98 -10 39 C-10.66 39 -11.32 39 -12 39 C-12 39.99 -12 40.98 -12 42 C-13.32 41.67 -14.64 41.34 -16 41 C-16.33 41.66 -16.66 42.32 -17 43 C-19.2477975 40.94766315 -20.0022242 39.99332739 -21 37 C-21.66 36.67 -22.32 36.34 -23 36 C-23 36.99 -23 37.98 -23 39 C-24.32 39.66 -25.64 40.32 -27 41 C-28.1577506 37.52674819 -28.06866652 34.63932552 -28 31 C-28.33 31.33 -28.66 31.66 -29 32 C-30.65816784 32.68753301 -32.32459336 33.35561283 -34 34 C-34 33.01 -34 32.02 -34 31 C-32.015625 29.5625 -32.015625 29.5625 -29.25 28 C-18.00339211 21.13349775 -7.30522722 10.95784084 0 0 Z " fill="#AC9470" transform="translate(344,302)"/>
<path d="M0 0 C0.125 5.75 0.125 5.75 -1 8 C1.64 7.67 4.28 7.34 7 7 C7 7.99 7 8.98 7 10 C8.32 8.35 9.64 6.7 11 5 C11.66 5.33 12.32 5.66 13 6 C12.67 6.66 12.34 7.32 12 8 C13.65 8 15.3 8 17 8 C17 8.66 17 9.32 17 10 C16.01 10.33 15.02 10.66 14 11 C14.495 11.99 14.495 11.99 15 13 C13.906875 12.95875 12.81375 12.9175 11.6875 12.875 C7.91107771 12.67925334 7.91107771 12.67925334 5 15 C2.0469298 15.18462487 -0.80948936 15.25589305 -3.76171875 15.23046875 C-4.62634232 15.23001053 -5.49096588 15.22955231 -6.38179016 15.2290802 C-8.2134437 15.22605844 -10.04509468 15.21817438 -11.87670898 15.20581055 C-14.65943681 15.18768281 -17.44182895 15.18530011 -20.22460938 15.18554688 C-22.00781534 15.18062618 -23.79101907 15.17479547 -25.57421875 15.16796875 C-26.39846848 15.16685593 -27.2227182 15.1657431 -28.07194519 15.16459656 C-33.12897681 15.12378521 -37.99305318 14.71855475 -43 14 C-42.67 13.484375 -42.34 12.96875 -42 12.4375 C-40.67989123 9.21973488 -40.86757895 6.4429472 -41 3 C-40.34 3 -39.68 3 -39 3 C-38.731875 3.639375 -38.46375 4.27875 -38.1875 4.9375 C-37.11332248 7.33131686 -37.11332248 7.33131686 -34 8 C-34.33 8.99 -34.66 9.98 -35 11 C-31.87802522 9.6910428 -31.87802522 9.6910428 -30 7 C-30.66 6.67 -31.32 6.34 -32 6 C-24.25 5.875 -24.25 5.875 -22 7 C-21.67 5.68 -21.34 4.36 -21 3 C-20.34 3 -19.68 3 -19 3 C-19 3.99 -19 4.98 -19 6 C-17.10820797 6.6814823 -17.10820797 6.6814823 -15 7 C-14.34 6.34 -13.68 5.68 -13 5 C-12.67 5.66 -12.34 6.32 -12 7 C-11.401875 6.21625 -10.80375 5.4325 -10.1875 4.625 C-6.93189275 0.7182713 -4.9734711 -0.26883628 0 0 Z M-28 7 C-27 10 -27 10 -27 10 Z " fill="#B19A75" transform="translate(264,425)"/>
<path d="M0 0 C-0.99 0.33 -1.98 0.66 -3 1 C-3 1.66 -3 2.32 -3 3 C-3.66 3 -4.32 3 -5 3 C-4.649375 3.70125 -4.29875 4.4025 -3.9375 5.125 C-2.82909713 8.52410212 -3.32253544 10.53740334 -4 14 C-3.67 14.99 -3.34 15.98 -3 17 C-3.66 17 -4.32 17 -5 17 C-4.34 18.98 -3.68 20.96 -3 23 C-3.66 23.33 -4.32 23.66 -5 24 C-5.65772428 27.02934491 -5.65772428 27.02934491 -6 30 C-7.32 29.67 -8.64 29.34 -10 29 C-10.33 29.66 -10.66 30.32 -11 31 C-11.66 30.67 -12.32 30.34 -13 30 C-12.73958333 28.046875 -12.47916667 26.09375 -12.21875 24.140625 C-11.93222643 21.69541605 -11.93222643 21.69541605 -12 18 C-12.99 18 -13.98 18 -15 18 C-15.2475 17.38125 -15.495 16.7625 -15.75 16.125 C-17.23672969 13.59755953 -18.34609695 13.12589826 -21 12 C-21.99 11.34 -22.98 10.68 -24 10 C-23.34 10 -22.68 10 -22 10 C-22.99 9.01 -23.98 8.02 -25 7 C-25.99 7.495 -25.99 7.495 -27 8 C-27 7.34 -27 6.68 -27 6 C-27.99 6.33 -28.98 6.66 -30 7 C-30.99 6.01 -31.98 5.02 -33 4 C-32.01 4 -31.02 4 -30 4 C-30 3.34 -30 2.68 -30 2 C-29.34 2 -28.68 2 -28 2 C-27.67 2.33 -27.34 2.66 -27 3 C-26.34 2.01 -25.68 1.02 -25 0 C-22.80102539 -0.44824219 -22.80102539 -0.44824219 -20.09765625 -0.546875 C-18.63875977 -0.60681641 -18.63875977 -0.60681641 -17.15039062 -0.66796875 C-16.13138672 -0.69503906 -15.11238281 -0.72210938 -14.0625 -0.75 C-13.04736328 -0.79253906 -12.03222656 -0.83507812 -10.98632812 -0.87890625 C-3.44522844 -1.14840948 -3.44522844 -1.14840948 0 0 Z " fill="#B19973" transform="translate(275,347)"/>
<path d="M0 0 C0 1.8542837 -0.01728701 3.70876759 -0.0625 5.5625 C-0.17218753 8.00907507 -0.17218753 8.00907507 1 10 C0.0126546 11.67419438 -0.98812105 13.34051852 -2 15 C-2 17.62113708 -1.68707555 19.50935112 -1 22 C-1.66 22 -2.32 22 -3 22 C-2.67 22.66 -2.34 23.32 -2 24 C-0.68 24 0.64 24 2 24 C1.67 24.99 1.34 25.98 1 27 C-0.32 26.67 -1.64 26.34 -3 26 C-3 26.99 -3 27.98 -3 29 C-3.66 29 -4.32 29 -5 29 C-5 27.35 -5 25.7 -5 24 C-6.32 24 -7.64 24 -9 24 C-9.433125 22.824375 -9.433125 22.824375 -9.875 21.625 C-10.84912254 18.90328368 -10.84912254 18.90328368 -13 17 C-13.99 17.33 -14.98 17.66 -16 18 C-16 17.34 -16 16.68 -16 16 C-16.8971875 16.2475 -16.8971875 16.2475 -17.8125 16.5 C-20 17 -20 17 -23 17 C-22.67 15.68 -22.34 14.36 -22 13 C-22.66 12.67 -23.32 12.34 -24 12 C-24.66 13.98 -25.32 15.96 -26 18 C-26.99 17.67 -27.98 17.34 -29 17 C-29.33 14.69 -29.66 12.38 -30 10 C-28.51113281 9.67128906 -28.51113281 9.67128906 -26.9921875 9.3359375 C-17.46457592 7.14270018 -8.85912745 4.15271599 0 0 Z " fill="#AE9672" transform="translate(307,335)"/>
<path d="M0 0 C0.33 0.66 0.66 1.32 1 2 C2.32 1.67 3.64 1.34 5 1 C5 2.32 5 3.64 5 5 C4.34 5 3.68 5 3 5 C4.93254772 7.0245738 6.63158688 8.42105792 9 10 C8.34 10 7.68 10 7 10 C7 13.63 7 17.26 7 21 C7.99 20.67 8.98 20.34 10 20 C10.33 20.99 10.66 21.98 11 23 C10.01 23.99 9.02 24.98 8 26 C7.01 25.34 6.02 24.68 5 24 C4.01 24.99 3.02 25.98 2 27 C2.33 27.99 2.66 28.98 3 30 C1.02 29.34 -0.96 28.68 -3 28 C-3.625 25.625 -3.625 25.625 -4 23 C-3.34 22.34 -2.68 21.68 -2 21 C-1.01 21 -0.02 21 1 21 C1 20.34 1 19.68 1 19 C-0.32 18.67 -1.64 18.34 -3 18 C-3 16.02 -3 14.04 -3 12 C-3.99 11.67 -4.98 11.34 -6 11 C-7.1875 8.4375 -7.1875 8.4375 -8 6 C-5.37801226 3.84622436 -3.35595828 2.59927826 0 2 C0 1.34 0 0.68 0 0 Z M-6 26 C-5.34 26.66 -4.68 27.32 -4 28 C-4.99 28.495 -4.99 28.495 -6 29 C-6 28.01 -6 27.02 -6 26 Z " fill="#AE9773" transform="translate(307,383)"/>
<path d="M0 0 C0.99 0.33 1.98 0.66 3 1 C3 1.66 3 2.32 3 3 C-2.29411765 7 -2.29411765 7 -6 7 C-6 7.66 -6 8.32 -6 9 C-6.68964844 9.37511719 -7.37929688 9.75023437 -8.08984375 10.13671875 C-9.02957031 10.64847656 -9.96929687 11.16023438 -10.9375 11.6875 C-11.94296875 12.2340625 -12.9484375 12.780625 -13.984375 13.34375 C-16.56969792 14.76366829 -19.12892542 16.22034535 -21.6875 17.6875 C-32.99446544 23.926522 -32.99446544 23.926522 -40 22 C-40.19622241 17.78121808 -39.80230168 14.82989106 -38 11 C-34.125 11.875 -34.125 11.875 -33 13 C-32.67 12.01 -32.34 11.02 -32 10 C-31.34 10.33 -30.68 10.66 -30 11 C-28.68 11 -27.36 11 -26 11 C-24.25 13 -24.25 13 -23 15 C-20.7522025 12.94766315 -19.9977758 11.99332739 -19 9 C-17.35 9 -15.7 9 -14 9 C-13.6596875 8.0409375 -13.6596875 8.0409375 -13.3125 7.0625 C-12 5 -12 5 -9.8125 4.375 C-8.884375 4.25125 -7.95625 4.1275 -7 4 C-4.66237777 3.34853151 -2.32809543 2.68473395 0 2 C0 1.34 0 0.68 0 0 Z " fill="#B6A284" transform="translate(359,404)"/>
<path d="M0 0 C5.10265551 0.62292158 9.9412867 1.66472761 14.875 3.125 C15.59880859 3.33874268 16.32261719 3.55248535 17.06835938 3.77270508 C22.65599903 5.47823462 28.09047105 7.48421629 33.5 9.6875 C34.23589355 9.98479004 34.97178711 10.28208008 35.72998047 10.58837891 C40.87344844 12.74689689 40.87344844 12.74689689 42 15 C36.25 15.125 36.25 15.125 34 14 C34 13.34 34 12.68 34 12 C33.34 12 32.68 12 32 12 C31.67 13.65 31.34 15.3 31 17 C30.01 16.67 29.02 16.34 28 16 C27.01 16.33 26.02 16.66 25 17 C24.67 15.35 24.34 13.7 24 12 C23.01 12 22.02 12 21 12 C20.34 11.34 19.68 10.68 19 10 C15.91652174 9.83318891 15.91652174 9.83318891 13 10 C12.67 10.99 12.34 11.98 12 13 C10.02 13 8.04 13 6 13 C5.34 11.35 4.68 9.7 4 8 C4 8.99 4 9.98 4 11 C3.01 10.67 2.02 10.34 1 10 C1 6 1 6 2 5 C2 4.01 2 3.02 2 2 C1.34 2 0.68 2 0 2 C0 1.34 0 0.68 0 0 Z " fill="#AF9978" transform="translate(292,63)"/>
<path d="M0 0 C0.33 1.32 0.66 2.64 1 4 C1.99 3.67 2.98 3.34 4 3 C4.66 4.32 5.32 5.64 6 7 C5.01 7.495 5.01 7.495 4 8 C3.34 7.67 2.68 7.34 2 7 C2 7.66 2 8.32 2 9 C1.34 9 0.68 9 0 9 C-0.33 9.66 -0.66 10.32 -1 11 C-2.32 11 -3.64 11 -5 11 C-5.33 11.99 -5.66 12.98 -6 14 C-6 13.34 -6 12.68 -6 12 C-9.72614153 13.11854586 -9.72614153 13.11854586 -12 16 C-13.65 16 -15.3 16 -17 16 C-17 17.65 -17 19.3 -17 21 C-17.99 21 -18.98 21 -20 21 C-20.33 21.66 -20.66 22.32 -21 23 C-22.625 21.3125 -22.625 21.3125 -24 19 C-23.1875 16.625 -23.1875 16.625 -22 14 C-21.83242243 10.79129767 -21.83242243 10.79129767 -22 8 C-21.401875 8.226875 -20.80375 8.45375 -20.1875 8.6875 C-19.465625 8.790625 -18.74375 8.89375 -18 9 C-16.33333333 7.66666667 -16.33333333 7.66666667 -15 6 C-14.34 5.67 -13.68 5.34 -13 5 C-12.34 4.01 -11.68 3.02 -11 2 C-10.67 2.66 -10.34 3.32 -10 4 C-8.865625 3.814375 -7.73125 3.62875 -6.5625 3.4375 C-4.7990625 3.2209375 -4.7990625 3.2209375 -3 3 C-2.67 3.33 -2.34 3.66 -2 4 C-2 3.34 -2 2.68 -2 2 C-1.34 2 -0.68 2 0 2 C0 1.34 0 0.68 0 0 Z " fill="#AD9572" transform="translate(357,397)"/>
<path d="M0 0 C3.0831351 1.19899698 6.06279492 2.47700477 9 4 C9 4.66 9 5.32 9 6 C9.556875 6.103125 10.11375 6.20625 10.6875 6.3125 C13.4769101 7.14178408 15.6139064 8.34299056 18 10 C18 10.66 18 11.32 18 12 C18.763125 12.28875 19.52625 12.5775 20.3125 12.875 C23 14 23 14 26 16 C26 16.66 26 17.32 26 18 C26.54140625 18.22429687 27.0828125 18.44859375 27.640625 18.6796875 C30.73785148 20.41290364 33.18028198 22.71076278 35.75 25.125 C36.27859619 25.61709961 36.80719238 26.10919922 37.35180664 26.61621094 C38.90754644 28.07091638 40.455197 29.53369413 42 31 C42.78761719 31.74507812 43.57523437 32.49015625 44.38671875 33.2578125 C48.4839107 37.23794182 51.75232237 41.30891009 55 46 C56.29779632 47.36794747 57.6164076 48.71889593 59 50 C58.505 50.99 58.505 50.99 58 52 C53.125 49.25 53.125 49.25 52 47 C51.01 46.67 50.02 46.34 49 46 C48.71125 44.9275 48.4225 43.855 48.125 42.75 C46.8489646 38.49654868 45.38126507 36.80397592 42 34 C41.01 33.67 40.02 33.34 39 33 C39 32.01 39 31.02 39 30 C37.68 30 36.36 30 35 30 C34.505 29.01 34.505 29.01 34 28 C31.97536745 27.34786708 31.97536745 27.34786708 30 27 C30 25.68 30 24.36 30 23 C29.41734375 22.88269531 28.8346875 22.76539062 28.234375 22.64453125 C25.87265915 21.96326706 24.2669629 21.07954918 22.25 19.6875 C21.63640625 19.27886719 21.0228125 18.87023437 20.390625 18.44921875 C19 17 19 17 19 13 C18.113125 13.103125 17.22625 13.20625 16.3125 13.3125 C11.93476081 12.89950574 10.85503861 11.23070159 8 8 C4.96123694 5.33819054 4.96123694 5.33819054 1 5 C0.67 5.99 0.34 6.98 0 8 C-0.79953138 4.71303767 -1.09658936 3.28976808 0 0 Z " fill="#C4B79F" transform="translate(344,83)"/>
<path d="M0 0 C5.12897975 6.41122468 8.09701175 13.4075692 11 21 C11.40347656 22.00289062 11.80695313 23.00578125 12.22265625 24.0390625 C15.34958092 31.89940524 17.85095472 39.81976312 20 48 C20.22816406 48.85851562 20.45632813 49.71703125 20.69140625 50.6015625 C21.89720631 55.50908443 22.18370164 59.94820501 22 65 C21.34 64.34 20.68 63.68 20 63 C20 62.01 20 61.02 20 60 C18.515 59.505 18.515 59.505 17 59 C17.020625 58.05125 17.04125 57.1025 17.0625 56.125 C17.22551826 53.09333717 17.22551826 53.09333717 16 51 C16.16780163 48.30434798 16.61155645 45.67594446 17 43 C16.34 43 15.68 43 15 43 C15 43.66 15 44.32 15 45 C14.34 44.67 13.68 44.34 13 44 C13 40.37 13 36.74 13 33 C12.01 32.67 11.02 32.34 10 32 C10.020625 30.88625 10.04125 29.7725 10.0625 28.625 C10.26380718 25.16784079 10.26380718 25.16784079 9 23 C8.34 23.33 7.68 23.66 7 24 C6.62875 23.505 6.2575 23.01 5.875 22.5 C3.25305607 20.40244486 1.26157528 20.78256165 -2 21 C-1.34 19.35 -0.68 17.7 0 16 C0.99 16.33 1.98 16.66 3 17 C2.979375 16.05125 2.95875 15.1025 2.9375 14.125 C3 11 3 11 4 9 C3.01 8.67 2.02 8.34 1 8 C0.67 5.36 0.34 2.72 0 0 Z M14 52 C14.66 52.33 15.32 52.66 16 53 C15.01 53.99 14.02 54.98 13 56 C13.33 54.68 13.66 53.36 14 52 Z " fill="#CEC1AD" transform="translate(417,156)"/>
<path d="M0 0 C0.66 0.33 1.32 0.66 2 1 C-9.20295203 12.40221402 -9.20295203 12.40221402 -14 16 C-14.66 16 -15.32 16 -16 16 C-16 16.66 -16 17.32 -16 18 C-17.96147874 19.38938077 -19.96166576 20.7260411 -22 22 C-24 21 -24 21 -26 18 C-26.66 18 -27.32 18 -28 18 C-28.12375 17.360625 -28.2475 16.72125 -28.375 16.0625 C-28.58125 15.381875 -28.7875 14.70125 -29 14 C-29.66 13.67 -30.32 13.34 -31 13 C-29.70700306 10.11562221 -28.34058637 8.12780579 -26 6 C-25.67 7.65 -25.34 9.3 -25 11 C-24.34 11 -23.68 11 -23 11 C-23 10.34 -23 9.68 -23 9 C-22.34 9 -21.68 9 -21 9 C-21 8.34 -21 7.68 -21 7 C-20.01 7 -19.02 7 -18 7 C-17.34 9.31 -16.68 11.62 -16 14 C-15.34 13.67 -14.68 13.34 -14 13 C-13.67 12.01 -13.34 11.02 -13 10 C-10.9375 9.3125 -10.9375 9.3125 -9 9 C-8.9175 8.38125 -8.835 7.7625 -8.75 7.125 C-8 5 -8 5 -6.1875 3.9375 C-5.465625 3.628125 -4.74375 3.31875 -4 3 C-2.64886795 2.02418241 -1.31053056 1.02970259 0 0 Z " fill="#B49F7E" transform="translate(386,383)"/>
<path d="M0 0 C2.7885289 -0.22107787 5.34653181 -0.28107535 8.125 -0.1875 C8.87910156 -0.17396484 9.63320313 -0.16042969 10.41015625 -0.14648438 C12.27374127 -0.11109985 14.13695978 -0.05729167 16 0 C16 1.32 16 2.64 16 4 C15.01 4.33 14.02 4.66 13 5 C12.67 5.66 12.34 6.32 12 7 C12.66 7 13.32 7 14 7 C13 9 13 9 11 10 C10.67 9.01 10.34 8.02 10 7 C9.01 7.33 8.02 7.66 7 8 C7 9.65 7 11.3 7 13 C7.66 13 8.32 13 9 13 C9.33 12.34 9.66 11.68 10 11 C10.66 11 11.32 11 12 11 C12 12.32 12 13.64 12 15 C10.68 15.33 9.36 15.66 8 16 C8 15.34 8 14.68 8 14 C7.1028125 13.566875 7.1028125 13.566875 6.1875 13.125 C4 12 4 12 1 10 C1.66 10 2.32 10 3 10 C2.01 9.01 1.02 8.02 0 7 C-0.99 7.495 -0.99 7.495 -2 8 C-2 7.34 -2 6.68 -2 6 C-2.99 6.33 -3.98 6.66 -5 7 C-5.99 6.01 -6.98 5.02 -8 4 C-7.01 4 -6.02 4 -5 4 C-5 3.34 -5 2.68 -5 2 C-4.34 2 -3.68 2 -3 2 C-2.67 2.33 -2.34 2.66 -2 3 C-1.34 2.01 -0.68 1.02 0 0 Z " fill="#AF9771" transform="translate(250,347)"/>
<path d="M0 0 C0.33 0 0.66 0 1 0 C1.02686553 1.97909398 1.04633375 3.95828971 1.0625 5.9375 C1.07410156 7.03964844 1.08570313 8.14179688 1.09765625 9.27734375 C1 12 1 12 0 13 C-0.24686047 15.79775203 -0.42956744 18.57108231 -0.5625 21.375 C-0.6035083 22.22626465 -0.6445166 23.0775293 -0.68676758 23.95458984 C-1.25387505 36.72213985 -1.44066158 49.21750558 0.28393555 61.90063477 C1.17051619 68.62153957 1.19338574 75.22075541 1 82 C-9.78967603 65.81548595 -5.43160364 27.0153819 -1.85668945 8.47705078 C-1.27416218 5.6427859 -0.65242049 2.8189489 0 0 Z " fill="#D3C5AA" transform="translate(62,209)"/>
<path d="M0 0 C0 3 0 3 -1.5 4.6875 C-1.995 5.120625 -2.49 5.55375 -3 6 C-2.360625 6.20625 -1.72125 6.4125 -1.0625 6.625 C1 8 1 8 1.75 11.125 C1.87375 12.548125 1.87375 12.548125 2 14 C-3.36439644 16.68219822 -7.01006953 17.3152595 -13 17 C-13 16.01 -13 15.02 -13 14 C-13.144375 12.906875 -13.28875 11.81375 -13.4375 10.6875 C-12.96308437 6.68885398 -12.63561544 6.14118986 -9.8125 3.5625 C-7.33098487 1.65983728 -6.29109338 1.03164058 -3.125 0.6875 C-2.073125 0.8421875 -2.073125 0.8421875 -1 1 C-0.67 0.67 -0.34 0.34 0 0 Z " fill="#AD9773" transform="translate(317,414)"/>
<path d="M0 0 C0 3 0 3 0 3 Z M-3 3 C1.05281712 4.22527029 4.44360764 5.69880494 8 8 C7.67 9.32 7.34 10.64 7 12 C5.906875 11.896875 4.81375 11.79375 3.6875 11.6875 C-0.09063902 11.57440725 -0.09063902 11.57440725 -1.9375 14.25 C-3.24026619 17.13051224 -3.24026619 17.13051224 -3 21 C-3.99 20.67 -4.98 20.34 -6 20 C-6.66 20.33 -7.32 20.66 -8 21 C-8.99 20.67 -9.98 20.34 -11 20 C-11 19.34 -11 18.68 -11 18 C-9.35 17.34 -7.7 16.68 -6 16 C-6.33 15.34 -6.66 14.68 -7 14 C-8.65 14 -10.3 14 -12 14 C-11.505 13.1028125 -11.505 13.1028125 -11 12.1875 C-9.79212012 9.94613529 -9.79212012 9.94613529 -10 7 C-8.5459375 6.2884375 -8.5459375 6.2884375 -7.0625 5.5625 C-4.19522563 4.29806053 -4.19522563 4.29806053 -3 3 Z " fill="#B29A75" transform="translate(244,363)"/>
<path d="M0 0 C0.33 0.66 0.66 1.32 1 2 C3.97 1.34 6.94 0.68 10 0 C10 5.8049353 9.69033015 10.40078137 8 16 C6.68 14.68 5.36 13.36 4 12 C3.01 12.33 2.02 12.66 1 13 C0.34 12.34 -0.32 11.68 -1 11 C-1.556875 10.5875 -2.11375 10.175 -2.6875 9.75 C-4 8 -4 8 -3.875 4.9375 C-3 2 -3 2 0 0 Z " fill="#AD9571" transform="translate(419,304)"/>
<path d="M0 0 C0.66 0.33 1.32 0.66 2 1 C-0.12858504 5.14513929 -2.00000622 6.72727626 -6 9 C-8.40854673 10.91388187 -10.6984597 12.95945912 -13 15 C-21.5443038 22.51898734 -21.5443038 22.51898734 -26 26 C-26.66 25.67 -27.32 25.34 -28 25 C-28.33 25.99 -28.66 26.98 -29 28 C-29.99 28 -30.98 28 -32 28 C-32 26 -32 26 -30.6015625 24.58984375 C-29.94929688 24.04457031 -29.29703125 23.49929687 -28.625 22.9375 C-25.30932165 20.12740381 -22.07657981 17.25213237 -18.875 14.3125 C-9.65465017 6 -9.65465017 6 -6 6 C-6 5.34 -6 4.68 -6 4 C-4.03852126 2.61061923 -2.03833424 1.2739589 0 0 Z " fill="#C3AE8E" transform="translate(144,89)"/>
<path d="M0 0 C3.875 3.75 3.875 3.75 5 6 C5.66 6 6.32 6 7 6 C6.67 5.01 6.34 4.02 6 3 C6.99 3 7.98 3 9 3 C7.31326082 7.49797113 5.18326108 11.72886302 3 16 C2.34 15.67 1.68 15.34 1 15 C1.33 13.68 1.66 12.36 2 11 C2.66 11 3.32 11 4 11 C3.67 10.34 3.34 9.68 3 9 C1.34385343 8.61781233 -0.32457024 8.28604898 -2 8 C-2.66 7.67 -3.32 7.34 -4 7 C-4 7.66 -4 8.32 -4 9 C-3.01 9.33 -2.02 9.66 -1 10 C-1.99 10.66 -2.98 11.32 -4 12 C-4.2236068 14.9254644 -4.2236068 14.9254644 -3 17 C-4.65 17.99 -6.3 18.98 -8 20 C-8.0272415 18.58344207 -8.04650467 17.16672955 -8.0625 15.75 C-8.07410156 14.96109375 -8.08570313 14.1721875 -8.09765625 13.359375 C-7.96857328 10.24073034 -7.39393304 7.78786607 -6 5 C-6 4.34 -6 3.68 -6 3 C-4.68 3 -3.36 3 -2 3 C-1.34 2.01 -0.68 1.02 0 0 Z " fill="#B19876" transform="translate(410,337)"/>
<path d="M0 0 C3.90112618 1.61618085 6.71515283 4.27377627 9.75 7.125 C10.27859619 7.61709961 10.80719238 8.10919922 11.35180664 8.61621094 C12.90754644 10.07091638 14.455197 11.53369413 16 13 C16.78761719 13.74507812 17.57523437 14.49015625 18.38671875 15.2578125 C22.4839107 19.23794182 25.75232237 23.30891009 29 28 C30.29779632 29.36794747 31.6164076 30.71889593 33 32 C32.505 32.99 32.505 32.99 32 34 C27.125 31.25 27.125 31.25 26 29 C25.01 28.67 24.02 28.34 23 28 C22.566875 26.39125 22.566875 26.39125 22.125 24.75 C20.8489646 20.49654868 19.38126507 18.80397592 16 16 C15.01 15.67 14.02 15.34 13 15 C13 14.01 13 13.02 13 12 C11.68 12 10.36 12 9 12 C8.67 11.34 8.34 10.68 8 10 C5.97536745 9.34786708 5.97536745 9.34786708 4 9 C4 7.68 4 6.36 4 5 C3.01 5 2.02 5 1 5 C0.67 3.35 0.34 1.7 0 0 Z " fill="#D0C5B2" transform="translate(370,101)"/>
<path d="M0 0 C0.99 0.33 1.98 0.66 3 1 C3 1.66 3 2.32 3 3 C-2.29411765 7 -2.29411765 7 -6 7 C-6 7.66 -6 8.32 -6 9 C-6.73605469 9.39832031 -7.47210938 9.79664063 -8.23046875 10.20703125 C-9.20628906 10.73683594 -10.18210937 11.26664062 -11.1875 11.8125 C-12.15042969 12.33457031 -13.11335938 12.85664063 -14.10546875 13.39453125 C-17.00616853 14.95562289 -17.00616853 14.95562289 -19.67578125 16.76171875 C-20.44277344 17.17035156 -21.20976562 17.57898438 -22 18 C-22.99 17.67 -23.98 17.34 -25 17 C-24.195625 16.236875 -23.39125 15.47375 -22.5625 14.6875 C-19.83200976 12.20569102 -19.83200976 12.20569102 -19 9 C-17.35 9 -15.7 9 -14 9 C-13.6596875 8.0409375 -13.6596875 8.0409375 -13.3125 7.0625 C-12 5 -12 5 -9.8125 4.375 C-8.884375 4.25125 -7.95625 4.1275 -7 4 C-4.66237777 3.34853151 -2.32809543 2.68473395 0 2 C0 1.34 0 0.68 0 0 Z " fill="#C2B499" transform="translate(359,404)"/>
<path d="M0 0 C2.31 0.33 4.62 0.66 7 1 C7 1.99 7 2.98 7 4 C8.175625 4.2165625 8.175625 4.2165625 9.375 4.4375 C12 5 12 5 14 6 C14 6.66 14 7.32 14 8 C14.53625 7.7525 15.0725 7.505 15.625 7.25 C19.33710494 6.85925211 21.18107157 8.75767057 24 11 C24 11.66 24 12.32 24 13 C25.65 13 27.3 13 29 13 C29 13.66 29 14.32 29 15 C30.98 15 32.96 15 35 15 C35.495 16.98 35.495 16.98 36 19 C27.93375841 17.07444563 20.96015679 13.55803941 13.75 9.5625 C12.86570313 9.08490234 11.98140625 8.60730469 11.0703125 8.11523438 C6.86641505 5.80055066 3.13661904 3.7269378 0 0 Z " fill="#D9CDBB" transform="translate(143,409)"/>
<path d="M0 0 C4.9697891 0.6260543 9.21138567 2.06563203 13.8125 3.9375 C14.49248047 4.20240234 15.17246094 4.46730469 15.87304688 4.74023438 C20.87499513 6.74999025 20.87499513 6.74999025 22 9 C16.25 9.125 16.25 9.125 14 8 C14 7.34 14 6.68 14 6 C13.34 6 12.68 6 12 6 C11.67 7.65 11.34 9.3 11 11 C10.01 10.67 9.02 10.34 8 10 C7.01 10.33 6.02 10.66 5 11 C4.67 9.35 4.34 7.7 4 6 C3.01 6 2.02 6 1 6 C1.33 4.35 1.66 2.7 2 1 C1.34 0.67 0.68 0.34 0 0 Z " fill="#AF9975" transform="translate(312,69)"/>
<path d="M0 0 C2.31 0.33 4.62 0.66 7 1 C7 1.66 7 2.32 7 3 C3.43396512 4.18867829 0.03326221 4.36122101 -3.6875 4.5625 C-4.82155273 4.6251001 -4.82155273 4.6251001 -5.97851562 4.68896484 C-16.74664677 5.23813057 -27.48312981 5.1582648 -38.25 4.625 C-38.96542969 4.59422363 -39.68085938 4.56344727 -40.41796875 4.53173828 C-44.31826829 4.30621712 -46.41162309 3.79418846 -50 2 C-33.5 2 -17 2 0 2 C0 1.34 0 0.68 0 0 Z " fill="#D7CEC1" transform="translate(271,437)"/>
<path d="M0 0 C0.66 0 1.32 0 2 0 C4.27571116 8.03501094 4.27571116 8.03501094 3.125 12.0625 C2.568125 13.0215625 2.568125 13.0215625 2 14 C0.35 13.67 -1.3 13.34 -3 13 C-3.33 13.99 -3.66 14.98 -4 16 C-7 12.25 -7 12.25 -7 10 C-5.68 9.34 -4.36 8.68 -3 8 C-3.66 7.01 -4.32 6.02 -5 5 C-4.34 5 -3.68 5 -3 5 C-2.67 4.01 -2.34 3.02 -2 2 C-1.34 2 -0.68 2 0 2 C0 1.34 0 0.68 0 0 Z " fill="#AE9672" transform="translate(318,361)"/>
<path d="M0 0 C0 3.90838866 -1.50567876 5.11594107 -4 8 C-3.34 8.33 -2.68 8.66 -2 9 C-2.7425 9.53625 -3.485 10.0725 -4.25 10.625 C-7.19516398 13.16855071 -8.89779907 15.7449792 -11 19 C-13.125 21.375 -13.125 21.375 -15 23 C-15.66 23 -16.32 23 -17 23 C-17.33 24.32 -17.66 25.64 -18 27 C-18.66 26.67 -19.32 26.34 -20 26 C-19.34 24.35 -18.68 22.7 -18 21 C-17.34 21 -16.68 21 -16 21 C-15.78214844 20.31164062 -15.56429687 19.62328125 -15.33984375 18.9140625 C-13.62202626 15.17793466 -11.25562766 12.45085375 -8.5625 9.375 C-7.82676758 8.51648438 -7.82676758 8.51648438 -7.07617188 7.640625 C-4.80350264 5.00297919 -2.5179235 2.40696416 0 0 Z " fill="#D7CAB1" transform="translate(111,117)"/>
<path d="M0 0 C1.65 0 3.3 0 5 0 C5 0.66 5 1.32 5 2 C5.61875 2.061875 6.2375 2.12375 6.875 2.1875 C7.57625 2.455625 8.2775 2.72375 9 3 C9.3403125 4.2065625 9.3403125 4.2065625 9.6875 5.4375 C10.71096954 8.14592297 10.71096954 8.14592297 12.98046875 8.73828125 C15.31371818 9.23690389 17.64332676 9.63001034 20 10 C21.33674911 10.31935985 22.67143489 10.64814257 24 11 C23.67 13.31 23.34 15.62 23 18 C21.35 17.34 19.7 16.68 18 16 C18 15.34 18 14.68 18 14 C17.31550781 13.78472656 16.63101563 13.56945312 15.92578125 13.34765625 C12.12686387 11.59782114 9.32427653 9.16862873 6.1875 6.4375 C5.2912793 5.67663086 5.2912793 5.67663086 4.37695312 4.90039062 C2.89403678 3.62762471 1.44380332 2.31696847 0 1 C0 0.67 0 0.34 0 0 Z " fill="#E0D4C0" transform="translate(120,391)"/>
<path d="M0 0 C0.33 0.66 0.66 1.32 1 2 C0.15077644 4.20276418 -0.80421133 6.36535608 -1.8125 8.5 C-2.35519531 9.6653125 -2.89789063 10.830625 -3.45703125 12.03125 C-5 15 -5 15 -7 17 C-7.66 15.35 -8.32 13.7 -9 12 C-9.99 12.495 -9.99 12.495 -11 13 C-11.125 7.25 -11.125 7.25 -10 5 C-8.125 4.4375 -8.125 4.4375 -6 4 C-3.00667261 3.0022242 -2.05233685 2.2477975 0 0 Z " fill="#B7A384" transform="translate(426,323)"/>
<path d="M0 0 C1.32 0 2.64 0 4 0 C5.75 2 5.75 2 7 4 C7.99 3.01 8.98 2.02 10 1 C11.32 1.66 12.64 2.32 14 3 C12.66666667 4.33333333 11.33333333 5.66666667 10 7 C9.505 7.598125 9.01 8.19625 8.5 8.8125 C8.005 9.204375 7.51 9.59625 7 10 C4.9375 9.5625 4.9375 9.5625 3 9 C2.34 9.66 1.68 10.32 1 11 C1 9.02 1 7.04 1 5 C0.0409375 4.566875 0.0409375 4.566875 -0.9375 4.125 C-3 3 -3 3 -4 1 C-3.01 1.33 -2.02 1.66 -1 2 C-0.67 1.34 -0.34 0.68 0 0 Z " fill="#AC9470" transform="translate(364,357)"/>
<path d="M0 0 C1.90318884 2.85478326 2.4619099 4.41941308 3.125 7.6875 C3.29257812 8.49574219 3.46015625 9.30398437 3.6328125 10.13671875 C3.75398438 10.75160156 3.87515625 11.36648437 4 12 C2.02 13.32 0.04 14.64 -2 16 C-2.66 15.67 -3.32 15.34 -4 15 C-4 19.29 -4 23.58 -4 28 C-4.33 28 -4.66 28 -5 28 C-5 22.06 -5 16.12 -5 10 C-4.01 9.67 -3.02 9.34 -2 9 C-1.19436362 6.89415562 -1.19436362 6.89415562 -0.8125 4.4375 C-0.65394531 3.61121094 -0.49539063 2.78492188 -0.33203125 1.93359375 C-0.22246094 1.29550781 -0.11289062 0.65742188 0 0 Z " fill="#A18964" transform="translate(367,222)"/>
<path d="M0 0 C15.95509645 -0.2866185 31.40142142 0.57907035 47 4 C42.87817233 5.25109593 39.01898282 4.98814266 34.75390625 4.83984375 C31.78603123 5.01244357 29.68300141 5.75832058 27 7 C27 6.34 27 5.68 27 5 C27.66 5 28.32 5 29 5 C29 4.34 29 3.68 29 3 C28.22809326 2.98018066 27.45618652 2.96036133 26.66088867 2.93994141 C23.16941042 2.84478857 19.67853848 2.73506953 16.1875 2.625 C14.36508789 2.57859375 14.36508789 2.57859375 12.50585938 2.53125 C11.34248047 2.49257813 10.17910156 2.45390625 8.98046875 2.4140625 C7.37014771 2.36693115 7.37014771 2.36693115 5.72729492 2.31884766 C3 2 3 2 0 0 Z " fill="#D5C9B6" transform="translate(244,58)"/>
<path d="M0 0 C-2.19483583 1.46322389 -4.31962 2.74430366 -6.625 4 C-10.02820196 5.6051726 -10.02820196 5.6051726 -11 8 C-11.66 8 -12.32 8 -13 8 C-13.33 8.66 -13.66 9.32 -14 10 C-14.7425 9.649375 -15.485 9.29875 -16.25 8.9375 C-19.19915607 7.93210589 -20.15458168 7.95667995 -23 9 C-23.99 9.33 -24.98 9.66 -26 10 C-26.99 9.34 -27.98 8.68 -29 8 C-26.31342788 7.03899895 -23.62580289 6.08113751 -20.9375 5.125 C-20.18533203 4.85558594 -19.43316406 4.58617188 -18.65820312 4.30859375 C-5.56966146 -0.33755524 -5.56966146 -0.33755524 0 0 Z " fill="#D8CDB8" transform="translate(208,63)"/>
<path d="M0 0 C2.97 0.495 2.97 0.495 6 1 C6 3.66053211 5.80664504 5.49940039 5 8 C4.34 8.66 3.68 9.32 3 10 C3.33 10.99 3.66 11.98 4 13 C1 13 1 13 -1 12 C-3.22522523 5.67567568 -3.22522523 5.67567568 -2 2 C-1.34 2 -0.68 2 0 2 C0 1.34 0 0.68 0 0 Z " fill="#AE9672" transform="translate(330,372)"/>
<path d="M0 0 C1.9995979 2.99939685 2.27465076 3.76464333 2.44921875 7.15625 C2.49328857 8.0013916 2.5373584 8.8465332 2.58276367 9.71728516 C2.61732666 10.63558105 2.65188965 11.55387695 2.6875 12.5 C2.74611206 13.92965088 2.74611206 13.92965088 2.8059082 15.38818359 C3.07272055 23.47564875 2.95177059 31.53886474 2.6875 39.625 C2.65293701 40.79224609 2.61837402 41.95949219 2.58276367 43.16210938 C2.51665894 44.80276367 2.51665894 44.80276367 2.44921875 46.4765625 C2.41143311 47.44674316 2.37364746 48.41692383 2.3347168 49.41650391 C2 52 2 52 0 56 C0 37.52 0 19.04 0 0 Z " fill="#DAD1C4" transform="translate(439,222)"/>
<path d="M0 0 C5.28 0 10.56 0 16 0 C16 1.32 16 2.64 16 4 C15.01 4.33 14.02 4.66 13 5 C12.67 5.66 12.34 6.32 12 7 C12.66 7 13.32 7 14 7 C13 9 13 9 11 10 C10.67 9.01 10.34 8.02 10 7 C8.02 7.99 8.02 7.99 6 9 C6 6.66666667 6 4.33333333 6 2 C3.03 1.505 3.03 1.505 0 1 C0 0.67 0 0.34 0 0 Z " fill="#A38B65" transform="translate(250,347)"/>
<path d="M0 0 C0.66 0.99 1.32 1.98 2 3 C1.1875 5.375 1.1875 5.375 0 8 C-0.36871088 9.65919896 -0.71281674 11.3247643 -1 13 C-2.32 12.34 -3.64 11.68 -5 11 C-4.34 11 -3.68 11 -3 11 C-3.57584432 8.61435923 -4.22227595 6.33317216 -5 4 C-4.34 3.67 -3.68 3.34 -3 3 C-2.67 2.34 -2.34 1.68 -2 1 C-1.34 1.33 -0.68 1.66 0 2 C0 1.34 0 0.68 0 0 Z M-7 6 C-6.01 6.495 -6.01 6.495 -5 7 C-5.99 7.495 -5.99 7.495 -7 8 C-7 7.34 -7 6.68 -7 6 Z M-4 13 C-3.34 13 -2.68 13 -2 13 C0 15 0 15 2 18 C1.01 18.495 1.01 18.495 0 19 C-2.625 18.0625 -2.625 18.0625 -5 17 C-4.67 15.68 -4.34 14.36 -4 13 Z " fill="#AF9771" transform="translate(262,398)"/>
<path d="M0 0 C3.53347708 4.65776525 5.31216371 7.82346675 6.125 13.6875 C6.29257812 14.86699219 6.46015625 16.04648438 6.6328125 17.26171875 C6.75398438 18.16535156 6.87515625 19.06898438 7 20 C4.03 20.33 1.06 20.66 -2 21 C-1.34 19.35 -0.68 17.7 0 16 C0.99 16.33 1.98 16.66 3 17 C2.979375 16.05125 2.95875 15.1025 2.9375 14.125 C3 11 3 11 4 9 C3.01 8.67 2.02 8.34 1 8 C0.67 5.36 0.34 2.72 0 0 Z " fill="#AD9776" transform="translate(417,156)"/>
<path d="M0 0 C-1.09068668 3.77545388 -1.9083091 6.47043472 -5 9 C-5.66 8.67 -6.32 8.34 -7 8 C-7.33 8.66 -7.66 9.32 -8 10 C-8.66 10 -9.32 10 -10 10 C-10.33 9.34 -10.66 8.68 -11 8 C-12.65 8.33 -14.3 8.66 -16 9 C-13.61076232 6.38284162 -11.02899249 4.63800887 -8 2.8125 C-7.13375 2.28269531 -6.2675 1.75289063 -5.375 1.20703125 C-3 0 -3 0 0 0 Z " fill="#D0BDA1" transform="translate(162,80)"/>
<path d="M0 0 C0 0.33 0 0.66 0 1 C-0.81984375 1.04898438 -1.6396875 1.09796875 -2.484375 1.1484375 C-3.56203125 1.22320312 -4.6396875 1.29796875 -5.75 1.375 C-7.35101563 1.47941406 -7.35101563 1.47941406 -8.984375 1.5859375 C-11.91165218 1.8077443 -11.91165218 1.8077443 -13.90625 3.03125 C-17.09424694 4.50629336 -20.31091236 4.20951444 -23.75 4.125 C-24.44738281 4.11597656 -25.14476562 4.10695313 -25.86328125 4.09765625 C-27.57566958 4.07419888 -29.28788004 4.03833104 -31 4 C-22.57787949 -1.614747 -9.79581676 -0.24387926 0 0 Z M-18 4 C-17.01 4.33 -16.02 4.66 -15 5 C-15.99 5.99 -16.98 6.98 -18 8 C-18 6.68 -18 5.36 -18 4 Z " fill="#D3C5B0" transform="translate(240,59)"/>
<path d="M0 0 C0.66 0 1.32 0 2 0 C2 1.32 2 2.64 2 4 C1.18958252 4.44512939 0.37916504 4.89025879 -0.45581055 5.34887695 C-3.30558638 6.77779129 -3.30558638 6.77779129 -3.65942383 9.91088867 C-3.67513428 11.0682251 -3.69084473 12.22556152 -3.70703125 13.41796875 C-3.73603516 14.67158203 -3.76503906 15.92519531 -3.79492188 17.21679688 C-3.80072266 18.52712891 -3.80652344 19.83746094 -3.8125 21.1875 C-3.83564287 22.52282731 -3.86100781 23.85811808 -3.88867188 25.19335938 C-3.94768232 28.46253823 -3.98386229 31.73037372 -4 35 C-4.33 35 -4.66 35 -5 35 C-5.02505615 34.16750732 -5.0501123 33.33501465 -5.07592773 32.47729492 C-5.17112694 29.38537167 -5.27035672 26.29361148 -5.37231445 23.2019043 C-5.43687006 21.20696681 -5.4967783 19.21188071 -5.55664062 17.21679688 C-5.59853516 15.96318359 -5.64042969 14.70957031 -5.68359375 13.41796875 C-5.72025146 12.26063232 -5.75690918 11.1032959 -5.79467773 9.91088867 C-5.88328509 6.9356554 -5.88328509 6.9356554 -7 4 C-6.030625 3.525625 -5.06125 3.05125 -4.0625 2.5625 C-1.19522563 1.29806053 -1.19522563 1.29806053 0 0 Z " fill="#9A825F" transform="translate(391,138)"/>
<path d="M0 0 C2.4932534 0.99730136 3.77467439 1.65074531 5.25 3.9375 C6 6 6 6 6 9 C7.43750191 10.68798827 7.43750191 10.68798827 9 12 C4.25 13.125 4.25 13.125 2 12 C0.859375 10.0390625 0.859375 10.0390625 -0.25 7.625 C-0.62640625 6.83351563 -1.0028125 6.04203125 -1.390625 5.2265625 C-1.59171875 4.49179687 -1.7928125 3.75703125 -2 3 C-1.34 2.01 -0.68 1.02 0 0 Z " fill="#AF9773" transform="translate(274,395)"/>
<path d="M0 0 C0.33 0 0.66 0 1 0 C0.40024237 5.19565317 -0.75034662 9.86909141 -2.4375 14.8125 C-2.65470703 15.47958984 -2.87191406 16.14667969 -3.09570312 16.83398438 C-4.08431737 19.77607662 -4.7764064 21.7764064 -7 24 C-7.05395478 22.37536158 -7.09277195 20.75021459 -7.125 19.125 C-7.15980469 17.76761719 -7.15980469 17.76761719 -7.1953125 16.3828125 C-7 14 -7 14 -5 12 C-5.33 11.01 -5.66 10.02 -6 9 C-5.34 8.67 -4.68 8.34 -4 8 C-3.34 8.33 -2.68 8.66 -2 9 C-2.33 6.69 -2.66 4.38 -3 2 C-2.34 2.33 -1.68 2.66 -1 3 C-0.67 2.01 -0.34 1.02 0 0 Z " fill="#C6BAA5" transform="translate(434,299)"/>
<path d="M0 0 C1.32 0.33 2.64 0.66 4 1 C4 2.32 4 3.64 4 5 C4.66 5.33 5.32 5.66 6 6 C5.525625 6.433125 5.05125 6.86625 4.5625 7.3125 C2.76313043 9.02309613 2.76313043 9.02309613 2 12 C0.68 11.34 -0.64 10.68 -2 10 C-1.54177532 6.53058454 -1.10868317 3.32604951 0 0 Z " fill="#AC9470" transform="translate(321,415)"/>
<path d="M0 0 C0.99 0 1.98 0 3 0 C4.5056904 5.80766296 5.21824777 10.9981863 5 17 C4.34 16.34 3.68 15.68 3 15 C3 14.01 3 13.02 3 12 C2.01 11.67 1.02 11.34 0 11 C0.020625 10.05125 0.04125 9.1025 0.0625 8.125 C0.22551826 5.09333717 0.22551826 5.09333717 -1 3 C-0.67 2.01 -0.34 1.02 0 0 Z M-3 4 C-2.34 4.33 -1.68 4.66 -1 5 C-1.99 5.99 -2.98 6.98 -4 8 C-3.67 6.68 -3.34 5.36 -3 4 Z " fill="#C3B59C" transform="translate(434,204)"/>
<path d="M0 0 C0.66 0.33 1.32 0.66 2 1 C1.938125 2.258125 1.87625 3.51625 1.8125 4.8125 C1.76367078 8.16958979 1.76367078 8.16958979 3.5 11 C3.995 11.33 4.49 11.66 5 12 C-1.4 15.07692308 -1.4 15.07692308 -4.4375 14.6875 C-4.953125 14.460625 -5.46875 14.23375 -6 14 C-4.02 13.01 -2.04 12.02 0 11 C0 10.34 0 9.68 0 9 C-0.66 8.67 -1.32 8.34 -2 8 C-1.67 7.34 -1.34 6.68 -1 6 C-1.99 6 -2.98 6 -4 6 C-4.33 5.01 -4.66 4.02 -5 3 C-4.01 2.34 -3.02 1.68 -2 1 C-1.34 1.33 -0.68 1.66 0 2 C0 1.34 0 0.68 0 0 Z " fill="#B19976" transform="translate(318,416)"/>
<path d="M0 0 C3.4375 0.8125 3.4375 0.8125 7 2 C7.33 2.99 7.66 3.98 8 5 C7.01 5.66 6.02 6.32 5 7 C4.67 7.99 4.34 8.98 4 10 C2.68 9.34 1.36 8.68 0 8 C0 7.34 0 6.68 0 6 C-0.99 5.67 -1.98 5.34 -3 5 C-2.01 4.67 -1.02 4.34 0 4 C0 2.68 0 1.36 0 0 Z " fill="#AE9672" transform="translate(347,318)"/>
<path d="M0 0 C0.33 0 0.66 0 1 0 C1.27728849 5.45334039 1.32918685 8.48181784 -2 13 C-2.721875 14.093125 -3.44375 15.18625 -4.1875 16.3125 C-4.785625 17.199375 -5.38375 18.08625 -6 19 C-6.99 18.67 -7.98 18.34 -9 18 C-8.67 16.02 -8.34 14.04 -8 12 C-7.01 12 -6.02 12 -5 12 C-3.96986723 10.35178756 -2.96885372 8.68496298 -2 7 C-1.34 7 -0.68 7 0 7 C0 4.69 0 2.38 0 0 Z " fill="#9E8660" transform="translate(370,242)"/>
<path d="M0 0 C1.32 1.32 2.64 2.64 4 4 C-0.455 7.96 -0.455 7.96 -5 12 C-6.03864166 8.88407501 -6.09036928 7.9737344 -5 5 C-4.34 4.67 -3.68 4.34 -3 4 C-2.67 3.01 -2.34 2.02 -2 1 C-1.34 0.67 -0.68 0.34 0 0 Z " fill="#B49B76" transform="translate(192,156)"/>
<path d="M0 0 C0 4.79218001 -2.36540791 7.31897434 -5.5625 10.75 C-8 13 -8 13 -10 14 C-9.42415568 11.61435923 -8.77772405 9.33317216 -8 7 C-7.34 6.67 -6.68 6.34 -6 6 C-5.34444881 3.47266765 -5.34444881 3.47266765 -5 1 C-3.35 0.67 -1.7 0.34 0 0 Z " fill="#CBBDA7" transform="translate(404,362)"/>
<path d="M0 0 C0.33 0 0.66 0 1 0 C1.20113154 6.80495037 0.98789426 12.45164244 -1 19 C-1.45930539 22.99242375 -1.7497556 26.98950421 -2 31 C-2.33 31 -2.66 31 -3 31 C-3.38339966 20.19380948 -2.5423351 10.53253112 0 0 Z " fill="#E1D6C1" transform="translate(62,209)"/>
<path d="M0 0 C0.66 0.66 1.32 1.32 2 2 C2.556875 1.649375 3.11375 1.29875 3.6875 0.9375 C6.53886783 -0.21845993 8.08517222 0.19032562 11 1 C10.67 2.32 10.34 3.64 10 5 C9.01 5 8.02 5 7 5 C6.67 5.66 6.34 6.32 6 7 C6 6.01 6 5.02 6 4 C5.071875 4.37125 4.14375 4.7425 3.1875 5.125 C2.135625 5.41375 1.08375 5.7025 0 6 C-0.99 5.34 -1.98 4.68 -3 4 C-2.01 2.68 -1.02 1.36 0 0 Z " fill="#B39B75" transform="translate(214,408)"/>
<path d="M0 0 C0.66 0.33 1.32 0.66 2 1 C-8.37357631 11.55808656 -8.37357631 11.55808656 -14 16 C-14.66 15.67 -15.32 15.34 -16 15 C-13.53846154 10.2 -13.53846154 10.2 -10.8125 9.1875 C-10.214375 9.125625 -9.61625 9.06375 -9 9 C-8.9175 8.38125 -8.835 7.7625 -8.75 7.125 C-8 5 -8 5 -6.1875 3.9375 C-5.465625 3.628125 -4.74375 3.31875 -4 3 C-2.64886795 2.02418241 -1.31053056 1.02970259 0 0 Z " fill="#D9D0BE" transform="translate(386,383)"/>
<path d="M0 0 C0.66 0.33 1.32 0.66 2 1 C0.02677065 5.56958375 -1.92236229 8.13463296 -6 11 C-6.66 10.67 -7.32 10.34 -8 10 C-8.33 10.99 -8.66 11.98 -9 13 C-9.99 13 -10.98 13 -12 13 C-12 12.34 -12 11.68 -12 11 C-10.390625 9.4140625 -10.390625 9.4140625 -8.25 7.625 C-5.3756268 5.18382134 -2.61456008 2.72350008 0 0 Z " fill="#DDCFB8" transform="translate(124,104)"/>
<path d="M0 0 C0.99 0.33 1.98 0.66 3 1 C3.05398987 3.27057377 3.09278742 5.54151288 3.125 7.8125 C3.14820313 9.07707031 3.17140625 10.34164063 3.1953125 11.64453125 C3 15 3 15 1 18 C0.0762537 14.88957302 -0.0781003 12.17378111 0 8.9375 C0.0745131 5.84054943 -0.00691998 3.97924005 -1 1 C-0.67 0.67 -0.34 0.34 0 0 Z " fill="#BEAF94" transform="translate(436,272)"/>
<path d="M0 0 C0.33 0 0.66 0 1 0 C1.33730842 1.43657245 1.66969591 2.87430093 2 4.3125 C2.185625 5.11300781 2.37125 5.91351563 2.5625 6.73828125 C3 9 3 9 3 12 C1.68 11.34 0.36 10.68 -1 10 C-1 9.34 -1 8.68 -1 8 C-2.65 8.33 -4.3 8.66 -6 9 C-3.25 4.125 -3.25 4.125 -1 3 C-0.67 2.01 -0.34 1.02 0 0 Z " fill="#A58D68" transform="translate(368,336)"/>
<path d="M0 0 C1.65 0 3.3 0 5 0 C5.28875 0.7425 5.5775 1.485 5.875 2.25 C6.431875 3.61125 6.431875 3.61125 7 5 C7.268125 5.66 7.53625 6.32 7.8125 7 C9.46093504 9.77631164 11.66712144 11.78990452 14 14 C13.67 14.66 13.34 15.32 13 16 C11.01492207 13.90114686 9.03689607 11.79636118 7.0625 9.6875 C6.49853516 9.09259766 5.93457031 8.49769531 5.35351562 7.88476562 C4.81533203 7.30791016 4.27714844 6.73105469 3.72265625 6.13671875 C3.22515869 5.60780029 2.72766113 5.07888184 2.21508789 4.53393555 C1 3 1 3 0 0 Z " fill="#E3D7C3" transform="translate(98,367)"/>
<path d="M0 0 C0.928125 0.2784375 0.928125 0.2784375 1.875 0.5625 C4.04160178 1.23686176 4.04160178 1.23686176 6 0 C7.5 1.1875 7.5 1.1875 9 3 C9.1875 5.6875 9.1875 5.6875 9 8 C6.0625 7.25 6.0625 7.25 3 6 C2.125 3.875 2.125 3.875 2 2 C1.34 2 0.68 2 0 2 C0 1.34 0 0.68 0 0 Z " fill="#CFBD9D" transform="translate(93,360)"/>
<path d="M0 0 C-1 1 -2 2 -3 3 C-3.68753301 4.65816784 -4.35561283 6.32459336 -5 8 C-5.99 7.67 -6.98 7.34 -8 7 C-8.33 4.69 -8.66 2.38 -9 0 C-5.62182575 -0.84454356 -3.32534757 -1.10844919 0 0 Z " fill="#A8906A" transform="translate(286,345)"/>
<path d="M0 0 C1 2 1 2 -0.1875 5.75 C-2.20902599 10.83612247 -4.90235509 15.31211958 -9 19 C-8.26427664 14.94330316 -6.35372904 11.44923348 -4.5 7.8125 C-4.17902344 7.17119141 -3.85804687 6.52988281 -3.52734375 5.86914062 C-1.14060834 1.14060834 -1.14060834 1.14060834 0 0 Z " fill="#E0D2BF" transform="translate(85,151)"/>
<path d="M0 0 C0.99 0.33 1.98 0.66 3 1 C3 1.66 3 2.32 3 3 C-2.29411765 7 -2.29411765 7 -6 7 C-6 7.66 -6 8.32 -6 9 C-7.32 9.33 -8.64 9.66 -10 10 C-9.67 9.01 -9.34 8.02 -9 7 C-8.34 7.33 -7.68 7.66 -7 8 C-7 6.68 -7 5.36 -7 4 C-4.69 3.34 -2.38 2.68 0 2 C0 1.34 0 0.68 0 0 Z " fill="#CFC4B3" transform="translate(359,404)"/>
<path d="M0 0 C2.16389998 6.8471978 -1.09371558 13.79111965 -4 20 C-4.33 20 -4.66 20 -5 20 C-4.35346673 13.04976736 -2.13972752 6.61822697 0 0 Z " fill="#DED1B9" transform="translate(68,188)"/>
<path d="M0 0 C3.21043882 1.38188453 5.04936365 2.92421903 7.25 5.625 C8.03117187 6.57246094 8.03117187 6.57246094 8.828125 7.5390625 C9.40820312 8.26222656 9.40820312 8.26222656 10 9 C9.67 9.66 9.34 10.32 9 11 C4.125 8.25 4.125 8.25 3 6 C2.01 5.67 1.02 5.34 0 5 C0 3.35 0 1.7 0 0 Z " fill="#C8BBA4" transform="translate(393,124)"/>
<path d="M0 0 C3.68007532 0.18098731 6.40147147 0.85636692 9.8125 2.1875 C6.60869983 4.32336678 5.79310033 4.41882175 2.125 4.3125 C1.31675781 4.29445313 0.50851563 4.27640625 -0.32421875 4.2578125 C-1.24654297 4.22300781 -1.24654297 4.22300781 -2.1875 4.1875 C-2.1875 3.5275 -2.1875 2.8675 -2.1875 2.1875 C-2.8475 1.8575 -3.5075 1.5275 -4.1875 1.1875 C-3.1875 0.1875 -3.1875 0.1875 0 0 Z " fill="#B29E79" transform="translate(212.1875,432.8125)"/>
<path d="M0 0 C2.31 0.33 4.62 0.66 7 1 C7 1.99 7 2.98 7 4 C7.763125 4.103125 8.52625 4.20625 9.3125 4.3125 C12.17059424 5.04364039 13.15742885 5.76951913 15 8 C14.01 8.495 14.01 8.495 13 9 C10.70539919 7.77896564 8.55906377 6.52037408 6.375 5.125 C5.76398438 4.74730469 5.15296875 4.36960937 4.5234375 3.98046875 C2.99375114 3.02100029 1.49395605 2.01420678 0 1 C0 0.67 0 0.34 0 0 Z " fill="#DFD3C1" transform="translate(143,409)"/>
<path d="M0 0 C-0.33 1.98 -0.66 3.96 -1 6 C-1.66 6 -2.32 6 -3 6 C-3.33 6.99 -3.66 7.98 -4 9 C-4 8.34 -4 7.68 -4 7 C-5.32 6.67 -6.64 6.34 -8 6 C-7.34 6 -6.68 6 -6 6 C-6 4.02 -6 2.04 -6 0 C-2.25 -1.125 -2.25 -1.125 0 0 Z " fill="#B69E78" transform="translate(216,391)"/>
<path d="M0 0 C0.66 0.33 1.32 0.66 2 1 C1.34 3.31 0.68 5.62 0 8 C-1.32 8.33 -2.64 8.66 -4 9 C-4.99 7.35 -5.98 5.7 -7 4 C-4.69 3.34 -2.38 2.68 0 2 C0 1.34 0 0.68 0 0 Z " fill="#AF9773" transform="translate(292,413)"/>
<path d="M0 0 C0.99 0 1.98 0 3 0 C1.31326082 4.49797113 -0.81673892 8.72886302 -3 13 C-3.66 12.67 -4.32 12.34 -5 12 C-4.67 10.68 -4.34 9.36 -4 8 C-3.34 8 -2.68 8 -2 8 C-2 7.01 -2 6.02 -2 5 C-2.99 4.67 -3.98 4.34 -5 4 C-4.67 3.01 -4.34 2.02 -4 1 C-3.34 1 -2.68 1 -2 1 C-1.67 1.66 -1.34 2.32 -1 3 C-0.34 3 0.32 3 1 3 C0.67 2.01 0.34 1.02 0 0 Z " fill="#CEC2AC" transform="translate(416,340)"/>
<path d="M0 0 C0.33 0 0.66 0 1 0 C1.1875 2.8125 1.1875 2.8125 1 6 C0.02246356 7.02196992 -0.9805881 8.01979625 -2 9 C-2.68255989 11.32873375 -3.35050775 13.66182791 -4 16 C-4.66 16.33 -5.32 16.66 -6 17 C-4.89061647 10.69403048 -3.06802099 5.62470514 0 0 Z " fill="#E1D7C1" transform="translate(75,170)"/>
<path d="M0 0 C4.75 0.875 4.75 0.875 7 2 C7.625 5.0625 7.625 5.0625 8 8 C6.6589523 7.24266726 5.32730219 6.46867264 4 5.6875 C2.88625 5.04361328 2.88625 5.04361328 1.75 4.38671875 C1.1725 3.92910156 0.595 3.47148438 0 3 C0 2.01 0 1.02 0 0 Z " fill="#BCAE95" transform="translate(363,97)"/>
<path d="M0 0 C0.99 0.33 1.98 0.66 3 1 C0.36 3.97 -2.28 6.94 -5 10 C-5.66 9.01 -6.32 8.02 -7 7 C-2.25 1.125 -2.25 1.125 0 0 Z " fill="#4B330F" transform="translate(311,283)"/>
<path d="M0 0 C0.66 0 1.32 0 2 0 C6 6.75 6 6.75 6 9 C6.66 9 7.32 9 8 9 C7.67 9.99 7.34 10.98 7 12 C6.01 11.67 5.02 11.34 4 11 C3.33333333 8.66666667 2.66666667 6.33333333 2 4 C1.01 3.67 0.02 3.34 -1 3 C-0.67 2.01 -0.34 1.02 0 0 Z " fill="#CFC3B0" transform="translate(405,138)"/>
<path d="M0 0 C2.97 0.495 2.97 0.495 6 1 C6 2.65 6 4.3 6 6 C3.03 5.67 0.06 5.34 -3 5 C-2.01 3.35 -1.02 1.7 0 0 Z " fill="#AB936D" transform="translate(266,134)"/>
<path d="M0 0 C-0.99 0.495 -0.99 0.495 -2 1 C-2.33 1.66 -2.66 2.32 -3 3 C-3.7425 2.649375 -4.485 2.29875 -5.25 1.9375 C-8.19915607 0.93210589 -9.15458168 0.95667995 -12 2 C-12.99 2.33 -13.98 2.66 -15 3 C-15.99 2.34 -16.98 1.68 -18 1 C-12.17238822 -1.91380589 -6.20929258 -1.55232315 0 0 Z " fill="#CEBDA3" transform="translate(197,70)"/>
<path d="M0 0 C6.95023264 0.64653327 13.38177303 2.86027248 20 5 C17 6 17 6 13 6 C13 5.34 13 4.68 13 4 C12.21625 4.185625 11.4325 4.37125 10.625 4.5625 C8 5 8 5 6 4 C6 3.34 6 2.68 6 2 C3.03 1.505 3.03 1.505 0 1 C0 0.67 0 0.34 0 0 Z " fill="#DDD4C5" transform="translate(292,63)"/>
<path d="M0 0 C2.5 -0.375 2.5 -0.375 5 0 C7 3 7 3 7 6 C5.35 6 3.7 6 2 6 C2.33 5.34 2.66 4.68 3 4 C1.35 3.67 -0.3 3.34 -2 3 C-1.34 2.01 -0.68 1.02 0 0 Z " fill="#AF9773" transform="translate(321,406)"/>
<path d="M0 0 C1.65 0.33 3.3 0.66 5 1 C4.67 3.64 4.34 6.28 4 9 C2.35 8.67 0.7 8.34 -1 8 C-0.67 5.36 -0.34 2.72 0 0 Z " fill="#B29A74" transform="translate(240,392)"/>
<path d="M0 0 C0.66 0.66 1.32 1.32 2 2 C4.58354218 2.16687448 4.58354218 2.16687448 7 2 C5.60667426 5.36720387 4.0210714 6.9859524 1 9 C-1.09230769 4.56923077 -1.09230769 4.56923077 -0.625 1.6875 C-0.41875 1.130625 -0.2125 0.57375 0 0 Z " fill="#C6B89D" transform="translate(387,374)"/>
<path d="M0 0 C4.84659077 0.59104765 8.60748167 1.97944157 13 4 C11.02 4.99 11.02 4.99 9 6 C8.67 5.01 8.34 4.02 8 3 C6.68 3 5.36 3 4 3 C3.67 3.99 3.34 4.98 3 6 C2.34 6 1.68 6 1 6 C1.33 4.35 1.66 2.7 2 1 C1.34 0.67 0.68 0.34 0 0 Z " fill="#CFC3AF" transform="translate(312,69)"/>
<path d="M0 0 C1.98 0.99 1.98 0.99 4 2 C3.67 2.99 3.34 3.98 3 5 C3.66 5.33 4.32 5.66 5 6 C5.33 6.99 5.66 7.98 6 9 C6.66 9.33 7.32 9.66 8 10 C8.625 13.0625 8.625 13.0625 9 16 C6.38284162 13.61076232 4.63800887 11.02899249 2.8125 8 C2.28269531 7.13375 1.75289063 6.2675 1.20703125 5.375 C0 3 0 3 0 0 Z " fill="#E5DBC7" transform="translate(80,338)"/>
<path d="M0 0 C1.65 0.33 3.3 0.66 5 1 C4.67 3.31 4.34 5.62 4 8 C1.525 7.01 1.525 7.01 -1 6 C-0.67 4.02 -0.34 2.04 0 0 Z " fill="#D1BC9E" transform="translate(139,401)"/>
<path d="M0 0 C0.99 0.33 1.98 0.66 3 1 C4.3125 3.8125 4.3125 3.8125 5 7 C4.125 9.375 4.125 9.375 3 11 C2.01 10.67 1.02 10.34 0 10 C0.99 8.02 1.98 6.04 3 4 C1.68 3.67 0.36 3.34 -1 3 C-0.67 2.01 -0.34 1.02 0 0 Z " fill="#AE9670" transform="translate(260,381)"/>
<path d="M0 0 C1.32 0.33 2.64 0.66 4 1 C4 2.32 4 3.64 4 5 C4.66 5 5.32 5 6 5 C6.33 4.01 6.66 3.02 7 2 C7 4.97 7 7.94 7 11 C6.54625 10.360625 6.0925 9.72125 5.625 9.0625 C4.16078274 6.90297594 4.16078274 6.90297594 2 6 C2 5.34 2 4.68 2 4 C1.34 4 0.68 4 0 4 C0 2.68 0 1.36 0 0 Z " fill="#B29D7C" transform="translate(433,262)"/>
<path d="M0 0 C3.28788824 3.11016455 5.83735988 6.01618925 8 10 C6.68 10.33 5.36 10.66 4 11 C3.87625 10.071875 3.87625 10.071875 3.75 9.125 C3.18741541 6.81562433 3.18741541 6.81562433 0.9375 5.75 C0.298125 5.5025 -0.34125 5.255 -1 5 C-0.67 3.35 -0.34 1.7 0 0 Z " fill="#E0C8A2" transform="translate(323,181)"/>
<path d="M0 0 C0.66 0.33 1.32 0.66 2 1 C-0.05011025 4.99231996 -1.8684588 7.14080646 -6 9 C-6.99 8.67 -7.98 8.34 -9 8 C-8.67 7.34 -8.34 6.68 -8 6 C-7.34 6 -6.68 6 -6 6 C-6 5.34 -6 4.68 -6 4 C-4.03852126 2.61061923 -2.03833424 1.2739589 0 0 Z " fill="#DCCEB9" transform="translate(144,89)"/>
<path d="M0 0 C0.99 0 1.98 0 3 0 C2.05275873 2.36810318 1.34708866 3.75207953 -0.75 5.25 C-3.57753638 6.19251213 -6.03993304 6.1345485 -9 6 C-9 5.34 -9 4.68 -9 4 C-6.36 3.67 -3.72 3.34 -1 3 C-0.67 2.01 -0.34 1.02 0 0 Z " fill="#AA9875" transform="translate(294,431)"/>
<path d="M0 0 C1.37562854 1.28965176 2.70766393 2.62689293 4 4 C4 4.66 4 5.32 4 6 C4.66 6.33 5.32 6.66 6 7 C1.80530429 6.40075776 -2.00999834 5.42500059 -6 4 C-4.68 3.34 -3.36 2.68 -2 2 C-2 2.66 -2 3.32 -2 4 C-1.34 3.67 -0.68 3.34 0 3 C0 2.01 0 1.02 0 0 Z " fill="#D5C8B0" transform="translate(194,428)"/>
<path d="M0 0 C0.66 0 1.32 0 2 0 C2 1.65 2 3.3 2 5 C1.01 5.33 0.02 5.66 -1 6 C-1.66 5.67 -2.32 5.34 -3 5 C-3 5.66 -3 6.32 -3 7 C-4.32 6.34 -5.64 5.68 -7 5 C-6.01 4.67 -5.02 4.34 -4 4 C-3.319375 3.319375 -2.63875 2.63875 -1.9375 1.9375 C-1.298125 1.298125 -0.65875 0.65875 0 0 Z " fill="#C0AA88" transform="translate(148,88)"/>
<path d="M0 0 C2.4750171 1.11431765 4.67883419 2.58150978 7 4 C7 4.66 7 5.32 7 6 C3.65626525 5.44271087 0.96687001 4.64826111 -2 3 C-2 2.34 -2 1.68 -2 1 C-1.34 0.67 -0.68 0.34 0 0 Z " fill="#D2C4AD" transform="translate(160,416)"/>
<path d="M0 0 C4.03854121 5.0920737 4.10306393 8.71310016 4 15 C0.57974684 11.57974684 0.04655199 7.28017975 -0.125 2.5625 C-0.08375 1.716875 -0.0425 0.87125 0 0 Z " fill="#DDD1BB" transform="translate(63,291)"/>
<path d="M0 0 C2 1 2 1 3.1875 3.0625 C4.29043192 7.05002309 3.68925838 9.93337555 3 14 C1.68 13.34 0.36 12.68 -1 12 C-0.01 11.67 0.98 11.34 2 11 C1.34 7.37 0.68 3.74 0 0 Z " fill="#C7B8A2" transform="translate(422,166)"/>
<path d="M0 0 C0.99 0.66 1.98 1.32 3 2 C3 2.66 3 3.32 3 4 C2.34 4.66 1.68 5.32 1 6 C0.30251417 7.31747324 -0.36959957 8.64914193 -1 10 C-2.38125018 7.23749964 -2.19079306 5.05268901 -2 2 C-1.34 1.34 -0.68 0.68 0 0 Z " fill="#B09872" transform="translate(256,367)"/>
<path d="M0 0 C2.31 0.33 4.62 0.66 7 1 C7 1.66 7 2.32 7 3 C4.11788698 3.96070434 2.30149956 4.10581883 -0.6875 4.0625 C-1.89986328 4.04896484 -1.89986328 4.04896484 -3.13671875 4.03515625 C-4.05904297 4.01775391 -4.05904297 4.01775391 -5 4 C-2 2 -2 2 0 2 C0 1.34 0 0.68 0 0 Z " fill="#D2C7B4" transform="translate(271,437)"/>
<path d="M0 0 C1.32 0.66 2.64 1.32 4 2 C2.75 4.5 2.75 4.5 1 7 C-0.32 7 -1.64 7 -3 7 C-1.125 1.125 -1.125 1.125 0 0 Z " fill="#AF9773" transform="translate(315,377)"/>
<path d="M0 0 C2 1 2 1 3.125 4.0625 C3.41375 5.031875 3.7025 6.00125 4 7 C4.66 7 5.32 7 6 7 C6.33 9.97 6.66 12.94 7 16 C3.8601549 14.43007745 3.57856654 11.77552998 2.375 8.5625 C1.92898437 7.38816406 1.48296875 6.21382813 1.0234375 5.00390625 C0 2 0 2 0 0 Z " fill="#EBE1CF" transform="translate(69,314)"/>
<path d="M0 0 C0.66 0.33 1.32 0.66 2 1 C1.4375 2.875 1.4375 2.875 0 5 C-3.47585494 6.26394725 -6.29901924 7 -10 7 C-6.7 4.69 -3.4 2.38 0 0 Z " fill="#472D09" transform="translate(205,153)"/>
<path d="M0 0 C0 3.20395416 -0.74335022 5.09399739 -2 8 C-2.66 8 -3.32 8 -4 8 C-4.33 9.32 -4.66 10.64 -5 12 C-5.66 11.67 -6.32 11.34 -7 11 C-6.34 9.35 -5.68 7.7 -5 6 C-4.34 6 -3.68 6 -3 6 C-2.690625 5.195625 -2.38125 4.39125 -2.0625 3.5625 C-1 1 -1 1 0 0 Z " fill="#E2D6C0" transform="translate(98,132)"/>
<path d="M0 0 C2.475 0.99 2.475 0.99 5 2 C4.67 2.99 4.34 3.98 4 5 C3.01 5 2.02 5 1 5 C0.67 5.99 0.34 6.98 0 8 C-0.79953138 4.71303767 -1.09658936 3.28976808 0 0 Z " fill="#BFB299" transform="translate(344,83)"/>
<path d="M0 0 C0.99 0.33 1.98 0.66 3 1 C2.33333333 2.33333333 1.66666667 3.66666667 1 5 C0.64830932 6.32860925 0.31229724 7.66158328 0 9 C0 8.34 0 7.68 0 7 C-0.66 7 -1.32 7 -2 7 C-2 7.66 -2 8.32 -2 9 C-2.66 8.67 -3.32 8.34 -4 8 C-2.99983813 4.9995144 -1.6627026 2.67478244 0 0 Z " fill="#BAA586" transform="translate(402,135)"/>
<path d="M0 0 C1.3921875 0.3403125 1.3921875 0.3403125 2.8125 0.6875 C-0.28173168 3.78173168 -3.7398812 4.62456005 -8.0625 4.8125 C-8.76375 4.77125 -9.465 4.73 -10.1875 4.6875 C-9.589375 4.419375 -8.99125 4.15125 -8.375 3.875 C-6.13070098 2.83601259 -6.13070098 2.83601259 -4.8125 1 C-3.1875 -0.3125 -3.1875 -0.3125 0 0 Z " fill="#D6CDBA" transform="translate(309.1875,430.3125)"/>
<path d="M0 0 C1.65 1.65 3.3 3.3 5 5 C-1.4 8.07692308 -1.4 8.07692308 -4.4375 7.6875 C-4.953125 7.460625 -5.46875 7.23375 -6 7 C-4.02 6.01 -2.04 5.02 0 4 C0 3.34 0 2.68 0 2 C-0.66 1.67 -1.32 1.34 -2 1 C-1.34 0.67 -0.68 0.34 0 0 Z " fill="#D3C6B1" transform="translate(318,423)"/>
<path d="M0 0 C0.99 0.33 1.98 0.66 3 1 C4.1875 3.5625 4.1875 3.5625 5 6 C2 6 2 6 -0.1875 4 C-0.785625 3.34 -1.38375 2.68 -2 2 C-1.34 1.34 -0.68 0.68 0 0 Z " fill="#E0C8A2" transform="translate(203,306)"/>
<path d="M0 0 C0.33 0.99 0.66 1.98 1 3 C-0.8125 6.1875 -0.8125 6.1875 -3 9 C-3.66 9 -4.32 9 -5 9 C-4.67 6.69 -4.34 4.38 -4 2 C-3.01 2 -2.02 2 -1 2 C-0.67 1.34 -0.34 0.68 0 0 Z " fill="#D7CDBE" transform="translate(410,353)"/>
<path d="M0 0 C0.33 0.66 0.66 1.32 1 2 C0.22265625 4.1640625 0.22265625 4.1640625 -0.9375 6.625 C-1.31777344 7.44226563 -1.69804687 8.25953125 -2.08984375 9.1015625 C-2.39019531 9.72804688 -2.69054687 10.35453125 -3 11 C-3.33 11 -3.66 11 -4 11 C-4.17754126 7.09409237 -4.20731737 4.31097606 -2 1 C-1.34 0.67 -0.68 0.34 0 0 Z " fill="#CFC4B2" transform="translate(426,323)"/>
<path d="M0 0 C1.65 0.99 3.3 1.98 5 3 C3.68 4.32 2.36 5.64 1 7 C0.34 6.67 -0.32 6.34 -1 6 C-0.67 4.02 -0.34 2.04 0 0 Z " fill="#B69C77" transform="translate(187,320)"/>
<path d="M0 0 C0.33 0.66 0.66 1.32 1 2 C1.66 2 2.32 2 3 2 C2.34 3.98 1.68 5.96 1 8 C0.01 7.67 -0.98 7.34 -2 7 C-1.125 1.125 -1.125 1.125 0 0 Z " fill="#A38B67" transform="translate(363,253)"/>
<path d="M0 0 C2 1 2 1 2 1 Z M-11 1 C-7.37 1 -3.74 1 0 1 C-0.33 1.99 -0.66 2.98 -1 4 C-4.3 3.67 -7.6 3.34 -11 3 C-11 2.34 -11 1.68 -11 1 Z " fill="#B29C7A" transform="translate(222,62)"/>
<path d="M0 0 C0 0.99 0 1.98 0 3 C-2.66666667 4.33333333 -5.33333333 5.66666667 -8 7 C-8 6.34 -8 5.68 -8 5 C-8.99 4.67 -9.98 4.34 -11 4 C-10.28972656 3.79503906 -9.57945312 3.59007812 -8.84765625 3.37890625 C-7.92855469 3.10949219 -7.00945312 2.84007812 -6.0625 2.5625 C-4.68771484 2.16224609 -4.68771484 2.16224609 -3.28515625 1.75390625 C-1.0597507 1.20973949 -1.0597507 1.20973949 0 0 Z " fill="#AE9670" transform="translate(256,419)"/>
<path d="M0 0 C1.32 0 2.64 0 4 0 C4.33 0.99 4.66 1.98 5 3 C4.34 3 3.68 3 3 3 C2.34 4.32 1.68 5.64 1 7 C0.01 6.67 -0.98 6.34 -2 6 C-1.34 5.34 -0.68 4.68 0 4 C0 2.68 0 1.36 0 0 Z " fill="#BEAE91" transform="translate(347,409)"/>
<path d="M0 0 C0.33 0 0.66 0 1 0 C1.33 1.98 1.66 3.96 2 6 C1.01 6.495 1.01 6.495 0 7 C0 6.34 0 5.68 0 5 C-1.32 5.99 -2.64 6.98 -4 8 C-4.33 7.01 -4.66 6.02 -5 5 C-4.34 5 -3.68 5 -3 5 C-2.67 4.01 -2.34 3.02 -2 2 C-1.34 2 -0.68 2 0 2 C0 1.34 0 0.68 0 0 Z " fill="#AD9571" transform="translate(350,375)"/>
<path d="M0 0 C0.33 0 0.66 0 1 0 C0.45144652 4.571279 -0.41744803 8.67435795 -2 13 C-3.28317892 9.15046324 -3.06643637 6.05261865 -3 2 C-2.01 2.495 -2.01 2.495 -1 3 C-0.67 2.01 -0.34 1.02 0 0 Z " fill="#DCD5C2" transform="translate(434,299)"/>
<path d="M0 0 C1.65 1.65 3.3 3.3 5 5 C4.34 5.66 3.68 6.32 3 7 C2.01 7 1.02 7 0 7 C-1.125 2.25 -1.125 2.25 0 0 Z " fill="#AF9C7C" transform="translate(388,119)"/>
<path d="M0 0 C0.99 0.33 1.98 0.66 3 1 C2.34 1 1.68 1 1 1 C1.185625 1.78375 1.37125 2.5675 1.5625 3.375 C2 6 2 6 1 8 C-0.32 7.67 -1.64 7.34 -3 7 C-2.67 5.35 -2.34 3.7 -2 2 C-1.34 2 -0.68 2 0 2 C0 1.34 0 0.68 0 0 Z " fill="#A9916D" transform="translate(325,90)"/>
<path d="M0 0 C1.65 0.33 3.3 0.66 5 1 C4.67 1.99 4.34 2.98 4 4 C3.01 4 2.02 4 1 4 C0.34 4.66 -0.32 5.32 -1 6 C-1.33 5.34 -1.66 4.68 -2 4 C-2.99 3.67 -3.98 3.34 -5 3 C-3.35 2.67 -1.7 2.34 0 2 C0 1.34 0 0.68 0 0 Z " fill="#AB926C" transform="translate(339,85)"/>
<path d="M0 0 C0.33 0.66 0.66 1.32 1 2 C1.66 2 2.32 2 3 2 C3 2.99 3 3.98 3 5 C2.01 5.33 1.02 5.66 0 6 C-2.1875 4.5625 -2.1875 4.5625 -4 3 C-2.68 2.67 -1.36 2.34 0 2 C0 1.34 0 0.68 0 0 Z " fill="#AB936F" transform="translate(307,383)"/>
<path d="M0 0 C0 0.99 0 1.98 0 3 C-0.99 3.495 -0.99 3.495 -2 4 C-2.33 4.66 -2.66 5.32 -3 6 C-3 5.34 -3 4.68 -3 4 C-4.65 4.66 -6.3 5.32 -8 6 C-8.33 5.34 -8.66 4.68 -9 4 C-6.03 2.68 -3.06 1.36 0 0 Z " fill="#A8906B" transform="translate(307,335)"/>
<path d="M0 0 C1.74271938 2.297221 3.39911152 4.59866729 5 7 C4.67 7.99 4.34 8.98 4 10 C1 8 1 8 0.48828125 6.0546875 C0.32552083 4.03645833 0.16276042 2.01822917 0 0 Z " fill="#D5CCBC" transform="translate(417,156)"/>
<path d="M0 0 C1.98 0 3.96 0 6 0 C6 0.99 6 1.98 6 3 C4.02 3.99 2.04 4.98 0 6 C0 5.34 0 4.68 0 4 C0.66 4 1.32 4 2 4 C2 3.34 2 2.68 2 2 C1.34 2 0.68 2 0 2 C0 1.34 0 0.68 0 0 Z " fill="#B19772" transform="translate(198,152)"/>
<path d="M0 0 C0.33 0.66 0.66 1.32 1 2 C1.66 2 2.32 2 3 2 C3 1.34 3 0.68 3 0 C3.66 0 4.32 0 5 0 C4.67 1.32 4.34 2.64 4 4 C1.69 4 -0.62 4 -3 4 C-3 3.34 -3 2.68 -3 2 C-2.01 1.34 -1.02 0.68 0 0 Z " fill="#C1AA84" transform="translate(160,413)"/>
<path d="M0 0 C4.75 0.75 4.75 0.75 7 3 C6.67 3.66 6.34 4.32 6 5 C3.5625 4.1875 3.5625 4.1875 1 3 C0.67 2.01 0.34 1.02 0 0 Z " fill="#D8C9B2" transform="translate(132,400)"/>
<path d="M0 0 C1.2065625 0.0309375 1.2065625 0.0309375 2.4375 0.0625 C2.4375 1.0525 2.4375 2.0425 2.4375 3.0625 C0.4575 4.0525 0.4575 4.0525 -1.5625 5.0625 C-2.2225 3.7425 -2.8825 2.4225 -3.5625 1.0625 C-2.5625 0.0625 -2.5625 0.0625 0 0 Z " fill="#B29A74" transform="translate(251.5625,387.9375)"/>
<path d="M0 0 C1.875 0.1875 1.875 0.1875 4 1 C5.25 3.5625 5.25 3.5625 6 6 C5.34 6 4.68 6 4 6 C3.67 6.66 3.34 7.32 3 8 C3 7.01 3 6.02 3 5 C2.34 5 1.68 5 1 5 C0.67 3.35 0.34 1.7 0 0 Z " fill="#AB936F" transform="translate(343,369)"/>
<path d="M0 0 C1.32 0.33 2.64 0.66 4 1 C3.67 2.65 3.34 4.3 3 6 C2.01 6 1.02 6 0 6 C0 4.02 0 2.04 0 0 Z " fill="#B09874" transform="translate(362,226)"/>
<path d="M0 0 C1.485 0.99 1.485 0.99 3 2 C3.1875 5.125 3.1875 5.125 3 8 C2.34 8 1.68 8 1 8 C0.34 5.69 -0.32 3.38 -1 1 C-0.67 0.67 -0.34 0.34 0 0 Z " fill="#B09E7E" transform="translate(437,224)"/>
<path d="M0 0 C0.66 0.33 1.32 0.66 2 1 C1.67 2.32 1.34 3.64 1 5 C-0.65 5.33 -2.3 5.66 -4 6 C-3.67 5.34 -3.34 4.68 -3 4 C-2.34 4.33 -1.68 4.66 -1 5 C-1.33 3.68 -1.66 2.36 -2 1 C-1.34 0.67 -0.68 0.34 0 0 Z " fill="#A59373" transform="translate(371,392)"/>
<path d="M0 0 C0.99 0.33 1.98 0.66 3 1 C5.14255793 0.61067144 5.14255793 0.61067144 7 0 C7 1.32 7 2.64 7 4 C3.89448334 4 2.64738916 3.4606285 0 2 C0 1.34 0 0.68 0 0 Z " fill="#AC9470" transform="translate(307,347)"/>
<path d="M0 0 C1.98 0 3.96 0 6 0 C6 0.99 6 1.98 6 3 C5.34 3 4.68 3 4 3 C3.67 3.66 3.34 4.32 3 5 C2.67 4.34 2.34 3.68 2 3 C1.01 3 0.02 3 -1 3 C-0.67 2.01 -0.34 1.02 0 0 Z " fill="#C6AD85" transform="translate(138,347)"/>
<path d="M0 0 C2.97 0.495 2.97 0.495 6 1 C5.67 1.66 5.34 2.32 5 3 C2.6859378 3.73075648 0.35171131 4.40138258 -2 5 C-1.34 3.35 -0.68 1.7 0 0 Z " fill="#A78F6A" transform="translate(353,286)"/>
<path d="M0 0 C0.99 0.33 1.98 0.66 3 1 C0.63707344 3.52588702 -0.66462511 4.88820837 -4 6 C-3.67 4.68 -3.34 3.36 -3 2 C-2.34 2 -1.68 2 -1 2 C-0.67 1.34 -0.34 0.68 0 0 Z " fill="#C4AF89" transform="translate(116,114)"/>
<path d="M0 0 C1.32 0.33 2.64 0.66 4 1 C4 1.66 4 2.32 4 3 C5.32 3.33 6.64 3.66 8 4 C8 4.33 8 4.66 8 5 C4.28400809 5.20086443 3.22791555 5.1519437 0 3 C0 2.01 0 1.02 0 0 Z " fill="#D3CBBA" transform="translate(349,86)"/>
<path d="M0 0 C-0.75 1.9375 -0.75 1.9375 -2 4 C-4 4.875 -4 4.875 -6 5 C-6.66 4.34 -7.32 3.68 -8 3 C-3.375 0 -3.375 0 0 0 Z " fill="#DCCDB8" transform="translate(162,80)"/>
<path d="M0 0 C0.33 0.66 0.66 1.32 1 2 C2.65 1.67 4.3 1.34 6 1 C6 2.32 6 3.64 6 5 C3.69 4.67 1.38 4.34 -1 4 C-0.67 2.68 -0.34 1.36 0 0 Z " fill="#C1AB86" transform="translate(151,409)"/>
<path d="M0 0 C0.99 0.33 1.98 0.66 3 1 C2.01 1.33 1.02 1.66 0 2 C0 2.66 0 3.32 0 4 C-0.66 4 -1.32 4 -2 4 C-2 4.66 -2 5.32 -2 6 C-2.66 6 -3.32 6 -4 6 C-3.6875 4.125 -3.6875 4.125 -3 2 C-2.01 1.34 -1.02 0.68 0 0 Z " fill="#A58D67" transform="translate(272,346)"/>
<path d="M0 0 C2 3 2 3 1.625 5.1875 C1.41875 5.785625 1.2125 6.38375 1 7 C-0.32 6.34 -1.64 5.68 -3 5 C-1.125 1.125 -1.125 1.125 0 0 Z " fill="#AA926E" transform="translate(366,321)"/>
<path d="M0 0 C0.66 0.33 1.32 0.66 2 1 C-0.12055614 4.1808342 -1.63050557 5.31525278 -5 7 C-5.66 6.67 -6.32 6.34 -7 6 C-4.69 4.02 -2.38 2.04 0 0 Z " fill="#E9DFCE" transform="translate(133,97)"/>
<path d="M0 0 C1.65 0 3.3 0 5 0 C4.67 1.32 4.34 2.64 4 4 C3.01 4 2.02 4 1 4 C0.34 3.34 -0.32 2.68 -1 2 C-0.67 1.34 -0.34 0.68 0 0 Z " fill="#B69E7A" transform="translate(248,92)"/>
<path d="M0 0 C3.34373475 0.55728913 6.03312999 1.35173889 9 3 C5.99727245 3.96516243 3.95784231 4.22393475 1 3 C0.67 2.01 0.34 1.02 0 0 Z " fill="#D5CAB8" transform="translate(325,74)"/>
<path d="M0 0 C-0.66 0 -1.32 0 -2 0 C-2 0.99 -2 1.98 -2 3 C-4.31 3 -6.62 3 -9 3 C-8 1 -8 1 -5.625 -0.1875 C-3 -1 -3 -1 0 0 Z " fill="#DDD2BF" transform="translate(179,73)"/>
<path d="M0 0 C0.99 0 1.98 0 3 0 C3.66 2.31 4.32 4.62 5 7 C4.01 6.67 3.02 6.34 2 6 C0.8125 2.9375 0.8125 2.9375 0 0 Z " fill="#BEAC85" transform="translate(83,341)"/>
<path d="M0 0 C2.64 0 5.28 0 8 0 C6.68 1.32 5.36 2.64 4 4 C2.68 2.68 1.36 1.36 0 0 Z " fill="#442C07" transform="translate(217,297)"/>
<path d="M0 0 C1.32 0.66 2.64 1.32 4 2 C3.01 3.485 3.01 3.485 2 5 C1.01 4.67 0.02 4.34 -1 4 C-0.67 2.68 -0.34 1.36 0 0 Z " fill="#E3CBA5" transform="translate(295,161)"/>
<path d="M0 0 C0.75 1.75 0.75 1.75 1 4 C-0.9375 6.25 -0.9375 6.25 -3 8 C-3.33 7.34 -3.66 6.68 -4 6 C-2.68 4.02 -1.36 2.04 0 0 Z " fill="#E4D8C8" transform="translate(90,143)"/>
</svg>
